<?xml version="1.0" encoding="UTF-8"?>
<svg id="Layer_1" data-name="Layer 1" xmlns="http://www.w3.org/2000/svg" viewBox="0 0 149.07 150">
  <defs>
    <style>
      .cls-1 {
        fill: none;
        stroke: #fff;
        stroke-miterlimit: 10;
        stroke-width: 2.29px;
      }

      .cls-2 {
        fill: #fff;
      }
    </style>
  </defs>
  <circle class="cls-1" cx="74.54" cy="75" r="72.19"/>
  <g>
    <path class="cls-2" d="M28.17,41.46c.17-.49,.26-.73,.44-1.22,2.45-.86,3.71-1.26,6.29-2-.1,.33-.15,.5-.24,.83-.72,2.53-.03,3.95,1.65,3.58,1.6-.35,3.06-2.29,3.68-4.95,2.06-8.84,3.41-12.99,6.51-20.4,2.14-1.04,3.24-1.52,5.48-2.36-2.51,7.95-3.59,12.39-5.23,21.83-1.36,7.78-6.2,14.11-12.16,14.98-5.92,.87-8.79-3.52-6.42-10.29Z"/>
    <path class="cls-2" d="M66.38,41.51c-4.01,.15-5.99,.28-9.88,.62-.82,2.57-1.22,3.87-2.03,6.49-3.31,.24-4.94,.39-8.14,.72,4.79-12.45,9.81-24.8,14.93-37.11,2.32-.49,3.5-.68,5.89-.96,2.41,12.39,5.91,24.56,9.56,36.63-3.58-.03-5.39-.01-8.93,.07-.58-2.62-.86-3.92-1.39-6.46Zm-3.43-19.32c-1.52,4.48-2.31,6.8-3.91,11.56,2.32-.24,3.5-.34,5.87-.49-.92-4.62-1.32-6.84-1.96-11.07Z"/>
    <path class="cls-2" d="M95.62,48.69c-3.73-7.22-5.63-10.8-9.16-17.64,.51,6.57,.73,10.02,1.05,17.14-3.16-.15-4.76-.2-7.98-.26-.21-12.33-.57-24.66-1.14-36.98,2.48,.15,3.71,.28,6.12,.66,.69,5.44,1,8.35,1.54,14.43,2.14-5.82,3.01-8.51,4.16-13.27,2.71,.68,4.04,1.1,6.63,2.06-.77,4.91-1.61,7.84-3.88,14.31,4.53,7.93,6.97,12.1,11.64,20.39-3.52-.39-5.32-.56-8.97-.84Z"/>
    <path class="cls-2" d="M121.25,44.52c.93,3.07,1.34,4.65,2.04,7.87-6.31-1.24-9.66-1.77-16.61-2.61-1.41-11.58-3.86-23.06-7.68-34.09,5.09,2.11,7.52,3.44,12,6.54,1.55,2.46,2.28,3.74,3.65,6.41-2.86-1.52-4.35-2.21-7.42-3.46,.67,1.8,1,2.71,1.61,4.59,2.91,1,4.32,1.55,7.06,2.75,1.16,2.67,1.7,4.06,2.68,6.89-2.94-.98-4.46-1.43-7.57-2.26,.53,2.01,.78,3.04,1.24,5.11,3.71,.81,5.51,1.26,9,2.24Z"/>
    <path class="cls-2" d="M37.99,94.06c-1.77-8.82-2.45-13.51-3.11-22.56-3.08,9.15-4.34,13.67-5.84,21.58-.83-.11-1.24-.16-2.06-.28-3.92-8.5-5.67-12.88-8.02-20.92-1.04,8.1-1.1,12.2-.33,19.57-2.64-.45-3.92-.69-6.42-1.19-1.66-11.14,.83-21.31,3.61-31.99,2.53-.49,3.83-.72,6.49-1.16,.91,6.94,1.84,10.86,4.38,19.07,2.39-8.17,4.02-12.43,7.53-20.76,2.87-.35,4.34-.5,7.32-.79,.12,13.45,1.55,26.89,4.01,40.11-3.08-.24-4.59-.38-7.56-.68Z"/>
    <path class="cls-2" d="M63.42,96.74c-11.08-.83-16.58-12.42-16.56-22.27,.02-9.84,5.97-21.87,16.59-22.25,10.99-.39,16.47,12.59,16.47,22.23,0,9.67-5,22.21-16.5,22.29h0Zm-.24-10.72c4.56,.07,7.91-4.72,7.91-11.57,0-6.85-3.34-11.62-7.89-11.54-4.55,.08-7.97,4.88-7.98,11.55,0,6.67,3.41,11.49,7.96,11.56h0Z"/>
    <path class="cls-2" d="M109.14,54.79c1.38,13.1,1.41,26.34,.1,39.45-2.46,.24-3.71,.34-6.23,.54-3.73-8.21-6.03-12.83-10.79-22.16,.05,9.3-.05,13.99-.45,22.85-3.08,.14-4.64,.2-7.8,.27,.25-14.19,.24-28.35-.03-42.53,2.84,.07,4.25,.13,7.03,.25,4.82,8.75,7.31,13.28,11.7,22.04,.02-8.76-.16-13.09-.82-21.36,2.97,.23,4.43,.36,7.3,.65Z"/>
    <path class="cls-2" d="M138.69,74.57c.06,9.43-6.53,16.7-13.98,17.8-4,.59-6.07,.86-10.32,1.34,1.52-12.72,1.48-25.63-.12-38.35,4.24,.5,6.31,.79,10.29,1.41,7.45,1.16,14.07,8.36,14.13,17.8Zm-6.72-.03c-.03-5.16-2.83-8.68-6.58-8.97-1.16-.09-1.75-.13-2.94-.22,.58,7.24,.6,11.13,.07,18.39,1.19-.08,1.78-.12,2.94-.2,3.75-.26,6.53-3.87,6.5-9Z"/>
    <path class="cls-2" d="M48.46,126.4c.83,3.1,1.28,4.61,2.23,7.5-5.29-2.04-7.81-3.35-12.46-6.42-5.93-9.57-8.76-19.76-11.57-30.53,6.27,1.15,9.58,1.64,16.46,2.41,.42,3.63,.66,5.41,1.22,8.89-3.77-.61-5.61-.96-9.19-1.75,.46,2.03,.71,3.03,1.24,5,3.1,.83,4.7,1.2,7.96,1.87,.63,3.19,.98,4.75,1.73,7.78-3.06-.81-4.56-1.27-7.46-2.29,.64,1.89,.98,2.82,1.68,4.64,3.17,1.31,4.81,1.89,8.18,2.9Z"/>
    <path class="cls-2" d="M49.52,123.48c-.12-.53-.18-.8-.29-1.34,2.63,.62,3.97,.89,6.69,1.35,.05,.36,.08,.53,.14,.89,.42,2.68,1.76,4.55,3.38,4.82,1.54,.26,2.42-1.26,2.13-4.02-.97-9.16-1.36-14.13-1.87-24.48,3.17,.16,4.78,.22,8.03,.3,.24,10.71,.42,15.84,.88,25.3,.37,7.8-2.83,12.46-7.8,11.37-4.94-1.08-9.63-6.86-11.27-14.2Z"/>
    <path class="cls-2" d="M87.12,131.9c-3.31,.51-5,.68-8.42,.85-.63,2.26-.93,3.37-1.5,5.53-2.7,.11-4.09,.09-6.77-.07,2.9-12.55,6.71-24.86,10.4-37.19,3.16-.07,4.72-.12,7.81-.27,2.8,11.33,5.13,22.96,5.44,34.66-2.54,.78-3.84,1.11-6.48,1.64-.14-2-.23-3.03-.46-5.15Zm-2.9-18.64c-1.45,4.84-2.16,7.21-3.51,11.77,2.26-.12,3.38-.21,5.6-.45-.7-4.33-1.13-6.61-2.1-11.32Z"/>
    <path class="cls-2" d="M107.05,122.37c-.88,.31-1.32,.46-2.21,.74-1.18,3.94-1.82,5.84-3.21,9.44-2.17,.98-3.29,1.42-5.56,2.2,3.26-11.44,5.33-23.2,6.5-35.03,4.73-.47,7.04-.75,11.51-1.4,5.56-.81,8.41,3.45,6.19,10.04-1.3,3.87-3.88,7.36-6.7,10.01-.05,3.74-.3,5.4-1.31,8.16-2.15,1.5-3.27,2.2-5.58,3.49,.46-2.73,.53-4.27,.38-7.65Zm-.14-6.96c1.2-.3,1.8-.45,2.98-.78,1.81-.49,3.28-2.32,3.84-4.41,.56-2.09-.15-3.42-2.06-3.02-1.25,.26-1.88,.38-3.15,.62-.58,3.1-.91,4.62-1.62,7.59Z"/>
  </g>
</svg>