<?xml version="1.0" encoding="UTF-8"?>
<svg id="Layer_1" data-name="Layer 1" xmlns="http://www.w3.org/2000/svg" viewBox="0 0 791.25 433.4">
  <defs>
    <style>
      .cls-1 {
        fill: red;
      }
      .cls-2 {
        fill: black;
      }
    </style>
  </defs>
  <g>
    <path class="cls-2" d="M188.3,6.89H30.51c-3.65,0-6.61,2.96-6.61,6.61h0c0,3.54,2.78,6.45,6.32,6.61l23.13,1.04c1.7,.08,3.31,.81,4.48,2.04l16.93,17.72c1.18,1.23,1.83,2.87,1.83,4.57V310.49c0,.39-.03,.78-.1,1.16l-11.37,63.67c-.32,1.8-1.37,3.39-2.91,4.38l-47.47,30.81c-2.73,1.77-3.76,5.26-2.44,8.23l.66,1.49c1.52,3.43,5.59,4.9,8.96,3.25l84.57-41.63c1.12-.55,2.06-1.41,2.72-2.48l38.26-62.41c.64-1.04,.98-2.24,.98-3.46V45.33c0-1.62,.59-3.18,1.67-4.39l15.66-17.61c1.17-1.32,2.83-2.12,4.59-2.21l18.28-.96c3.51-.18,6.26-3.09,6.26-6.6v-.05c0-3.65-2.96-6.61-6.61-6.61Z"/>
    <path class="cls-2" d="M618.31,39.05l16.53-16.53c.81-.81,1.9-1.3,3.05-1.36l21.1-1.11c2.48-.13,4.42-2.18,4.42-4.66v-3.84c0-2.58-2.09-4.66-4.66-4.66h-110.55c-1.88,0-3.58,1.13-4.3,2.87l-93.17,222.97c-1.6,3.82-7.02,3.82-8.61,0L349.4,9.76c-.72-1.74-2.42-2.87-4.31-2.87h-119.17c-2.58,0-4.66,2.09-4.66,4.66v3.86c0,2.47,1.93,4.52,4.4,4.66l19.34,1.09c1.07,.06,2.08,.49,2.87,1.21l18.34,16.67c.97,.88,1.52,2.13,1.53,3.43l.95,255.81c0,.84-.22,1.67-.65,2.4l-16.27,27.4c-.8,1.34-2.21,2.2-3.77,2.28l-21.34,1.09c-2.48,.13-4.43,2.17-4.43,4.66v3.84c0,2.58,2.09,4.66,4.66,4.66h109.95c2.58,0,4.66-2.09,4.66-4.66v-3.83c0-2.49-1.95-4.53-4.43-4.66l-21.76-1.09c-1.59-.08-3.03-.97-3.82-2.35l-15.85-27.85c-.4-.7-.61-1.49-.61-2.29l-.86-222.13c-.02-5.08,6.94-6.53,8.95-1.86l115.26,267.9c.74,1.71,2.42,2.82,4.28,2.82h17.14c1.96,0,3.71-1.22,4.38-3.06l96.66-263.97c1.79-4.9,9.04-3.61,9.04,1.6v227.69c0,1.16-.43,2.28-1.22,3.14l-17.13,18.81c-.83,.91-1.98,1.45-3.2,1.52l-20.97,1.1c-2.48,.13-4.42,2.18-4.42,4.66v3.84c0,2.58,2.09,4.66,4.66,4.66h151.15c2.58,0,4.66-2.09,4.66-4.66v-3.84c0-2.48-1.94-4.53-4.42-4.66l-20.94-1.1c-1.25-.07-2.41-.63-3.24-1.56l-16.69-18.77c-.76-.85-1.18-1.96-1.18-3.1V42.35c0-1.24,.49-2.42,1.37-3.3Z"/>
  </g>
  <path class="cls-1" d="M767.36,346.04l-27.78,4.31-25.39-11.02-7.19-28.74,14.85-23.95,28.26-5.75,24.43,11.02,6.71,27.78-13.89,26.35Z"/>
</svg>