<?xml version="1.0" encoding="UTF-8"?>
<svg xmlns="http://www.w3.org/2000/svg" xmlns:xlink="http://www.w3.org/1999/xlink" viewBox="0 0 1920 1080">
  <defs>
    <style>
      .cls-1 {
        fill: #fff;
      }

      .cls-2 {
        fill: url(#USGS_20_Scrub);
      }

      .cls-2, .cls-3 {
        stroke: #231f20;
        stroke-miterlimit: 10;
        stroke-width: 1.52px;
      }

      .cls-4 {
        isolation: isolate;
      }

      .cls-5 {
        fill: none;
      }

      .cls-6 {
        fill: #231f20;
      }

      .cls-7 {
        mix-blend-mode: overlay;
        opacity: .5;
      }

      .cls-3 {
        fill: #333;
      }
    </style>
    <pattern id="USGS_20_Scrub" data-name="USGS 20 Scrub" x="0" y="0" width="72" height="72" patternTransform="translate(1296 -262)" patternUnits="userSpaceOnUse" viewBox="0 0 72 72">
      <g>
        <rect class="cls-5" x="0" width="72" height="72"/>
        <g>
          <path class="cls-6" d="M17,74.55c-.34,0-.68-.14-.92-.38-.24-.24-.38-.58-.38-.92s.14-.68,.38-.92c.48-.48,1.36-.48,1.84,0,.24,.24,.38,.58,.38,.92s-.14,.68-.38,.92c-.24,.24-.57,.38-.92,.38Z"/>
          <path class="cls-6" d="M27.75,74.55c-.34,0-.67-.14-.92-.38-.24-.25-.38-.58-.38-.92s.14-.67,.38-.92c.49-.48,1.35-.48,1.84,0,.24,.24,.38,.58,.38,.92s-.14,.68-.38,.92c-.24,.24-.58,.38-.92,.38Z"/>
        </g>
        <g>
          <path class="cls-6" d="M23.25,7.05c-.34,0-.67-.14-.92-.38-.24-.24-.38-.58-.38-.92s.14-.68,.38-.92c.49-.48,1.36-.48,1.84,0,.24,.24,.38,.58,.38,.92s-.14,.67-.38,.92c-.24,.24-.58,.38-.92,.38Z"/>
          <path class="cls-6" d="M14.5,9.05c-.34,0-.68-.14-.92-.38-.24-.24-.38-.58-.38-.92s.14-.68,.38-.92c.49-.48,1.36-.48,1.84,0,.24,.25,.38,.58,.38,.92s-.14,.68-.38,.92c-.24,.24-.57,.38-.92,.38Z"/>
          <path class="cls-6" d="M14.75,4.8c-.34,0-.67-.14-.92-.38-.24-.24-.38-.58-.38-.92s.14-.68,.38-.92c.49-.49,1.36-.48,1.84,0,.24,.25,.38,.58,.38,.92s-.14,.68-.38,.92c-.24,.24-.58,.38-.92,.38Z"/>
          <path class="cls-6" d="M17.75,8.8c-.34,0-.68-.14-.92-.38-.24-.24-.38-.58-.38-.92s.14-.68,.38-.92c.49-.48,1.36-.48,1.84,0,.24,.24,.38,.58,.38,.92s-.14,.68-.38,.92c-.24,.24-.58,.38-.92,.38Z"/>
          <path class="cls-6" d="M20,5.3c-.34,0-.67-.14-.92-.38-.24-.24-.38-.58-.38-.92s.14-.68,.38-.92c.49-.48,1.36-.48,1.84,0,.24,.24,.38,.58,.38,.92s-.14,.68-.38,.92c-.24,.24-.58,.38-.92,.38Z"/>
          <path class="cls-6" d="M29,6.3c-.34,0-.67-.14-.92-.38-.24-.24-.38-.58-.38-.92s.14-.68,.38-.92c.49-.48,1.36-.48,1.84,0,.24,.24,.38,.58,.38,.92s-.14,.68-.38,.92c-.24,.24-.58,.38-.92,.38Z"/>
          <path class="cls-6" d="M25,4.55c-.34,0-.67-.14-.92-.38-.24-.24-.38-.58-.38-.92s.14-.68,.38-.92c.48-.48,1.36-.49,1.84,0,.24,.24,.38,.58,.38,.92s-.14,.68-.38,.92c-.24,.24-.58,.38-.92,.38Z"/>
          <path class="cls-6" d="M17,2.55c-.34,0-.68-.14-.92-.38-.24-.24-.38-.58-.38-.92s.14-.68,.38-.92c.48-.48,1.36-.48,1.84,0,.24,.24,.38,.58,.38,.92s-.14,.68-.38,.92c-.24,.24-.57,.38-.92,.38Z"/>
          <path class="cls-6" d="M27.75,2.55c-.34,0-.67-.14-.92-.38-.24-.25-.38-.58-.38-.92s.14-.67,.38-.92c.49-.48,1.35-.48,1.84,0,.24,.24,.38,.58,.38,.92s-.14,.68-.38,.92c-.24,.24-.58,.38-.92,.38Z"/>
          <path class="cls-6" d="M31.75,3.55c-.34,0-.67-.14-.92-.38-.24-.24-.38-.58-.38-.92s.14-.68,.38-.92c.49-.48,1.36-.48,1.84,0,.24,.24,.38,.58,.38,.92s-.14,.68-.38,.92c-.24,.24-.58,.38-.92,.38Z"/>
          <path class="cls-6" d="M29,6.3c-.34,0-.67-.14-.92-.38-.24-.24-.38-.58-.38-.92s.14-.68,.38-.92c.49-.48,1.36-.48,1.84,0,.24,.24,.38,.58,.38,.92s-.14,.68-.38,.92c-.24,.24-.58,.38-.92,.38Z"/>
          <path class="cls-6" d="M28.25,9.05c-.34,0-.68-.14-.92-.38-.24-.24-.38-.58-.38-.92s.14-.68,.38-.92c.49-.48,1.35-.49,1.84,0,.24,.24,.38,.58,.38,.92s-.14,.68-.38,.92c-.24,.24-.58,.38-.92,.38Z"/>
          <path class="cls-6" d="M26.25,12.05c-.34,0-.67-.14-.92-.38-.24-.25-.38-.58-.38-.92s.14-.67,.38-.92c.49-.48,1.36-.48,1.84,0,.24,.25,.38,.58,.38,.92s-.14,.67-.38,.92c-.24,.24-.58,.38-.92,.38Z"/>
          <path class="cls-6" d="M22.25,10.3c-.34,0-.67-.14-.92-.38-.24-.24-.38-.58-.38-.92s.14-.68,.38-.92c.49-.48,1.36-.48,1.84,0,.24,.24,.38,.58,.38,.92s-.14,.68-.38,.92c-.24,.24-.58,.38-.92,.38Z"/>
          <path class="cls-6" d="M22,13.8c-.34,0-.67-.14-.92-.38-.24-.24-.38-.58-.38-.92s.14-.68,.38-.92c.49-.48,1.36-.48,1.84,0,.24,.24,.38,.58,.38,.92s-.14,.68-.38,.92c-.24,.24-.58,.38-.92,.38Z"/>
          <path class="cls-6" d="M17,12.8c-.34,0-.67-.14-.92-.38-.24-.24-.38-.58-.38-.92s.14-.68,.38-.92c.48-.48,1.36-.48,1.84,0,.24,.24,.38,.58,.38,.92s-.14,.68-.38,.92c-.24,.24-.58,.38-.92,.38Z"/>
          <path class="cls-6" d="M20.25,16.05c-.34,0-.67-.14-.92-.38-.24-.24-.38-.58-.38-.92s.14-.68,.38-.92c.48-.48,1.36-.48,1.84,0,.24,.24,.38,.58,.38,.92s-.14,.68-.38,.92c-.24,.24-.58,.38-.92,.38Z"/>
          <path class="cls-6" d="M22.75,19.8c-.34,0-.67-.14-.92-.38-.24-.24-.38-.58-.38-.92s.14-.68,.38-.92c.48-.48,1.35-.48,1.84,0,.24,.24,.38,.58,.38,.92s-.14,.68-.38,.92c-.24,.24-.58,.38-.92,.38Z"/>
          <path class="cls-6" d="M25.5,20.55c-.34,0-.68-.14-.92-.38-.24-.24-.38-.58-.38-.92s.14-.67,.38-.92c.49-.48,1.36-.48,1.84,0,.24,.25,.38,.58,.38,.92s-.14,.68-.38,.92c-.24,.24-.58,.38-.92,.38Z"/>
          <path class="cls-6" d="M28.5,18.8c-.34,0-.68-.14-.92-.38-.24-.24-.38-.58-.38-.92s.14-.68,.38-.92c.48-.48,1.36-.48,1.84,0,.24,.24,.38,.58,.38,.92s-.14,.68-.38,.92c-.24,.24-.57,.38-.92,.38Z"/>
          <path class="cls-6" d="M28,15.55c-.34,0-.68-.14-.92-.38-.24-.24-.38-.58-.38-.92s.14-.68,.38-.92c.49-.48,1.36-.48,1.84,0,.24,.24,.38,.58,.38,.92s-.14,.68-.38,.92c-.24,.24-.58,.38-.92,.38Z"/>
          <path class="cls-6" d="M30,13.3c-.34,0-.68-.14-.92-.38-.24-.24-.38-.58-.38-.92s.14-.68,.38-.92c.49-.48,1.36-.48,1.84,0,.24,.25,.38,.58,.38,.92s-.14,.67-.38,.92c-.24,.24-.57,.38-.92,.38Z"/>
          <path class="cls-6" d="M34.25,13.3c-.34,0-.68-.14-.92-.38-.24-.24-.38-.58-.38-.92s.14-.68,.38-.92c.49-.48,1.36-.48,1.84,0,.24,.24,.38,.58,.38,.92s-.14,.68-.38,.92c-.24,.24-.58,.38-.92,.38Z"/>
          <path class="cls-6" d="M32.5,18.05c-.34,0-.67-.14-.92-.38-.24-.24-.38-.58-.38-.92s.14-.68,.38-.92c.5-.49,1.36-.48,1.84,0,.24,.24,.38,.58,.38,.92s-.14,.68-.38,.92c-.24,.24-.58,.38-.92,.38Z"/>
          <path class="cls-6" d="M34.75,21.55c-.34,0-.68-.14-.92-.38-.24-.24-.38-.58-.38-.92s.14-.68,.38-.92c.49-.48,1.36-.48,1.84,0,.24,.25,.38,.58,.38,.92s-.14,.68-.38,.92c-.24,.24-.58,.38-.92,.38Z"/>
          <path class="cls-6" d="M31.25,21.8c-.34,0-.68-.14-.92-.38-.24-.24-.38-.58-.38-.92s.14-.68,.38-.92c.49-.48,1.36-.48,1.84,0,.24,.24,.38,.58,.38,.92s-.14,.68-.38,.92c-.24,.24-.57,.38-.92,.38Z"/>
          <path class="cls-6" d="M27.75,22.55c-.34,0-.67-.14-.92-.38-.24-.24-.38-.58-.38-.92s.14-.67,.38-.92c.49-.48,1.36-.48,1.84,0,.24,.24,.38,.58,.38,.92s-.14,.68-.38,.92c-.24,.24-.58,.38-.92,.38Z"/>
          <path class="cls-6" d="M37.25,17.05c-.34,0-.68-.14-.92-.38-.24-.24-.38-.58-.38-.92s.14-.68,.38-.92c.49-.48,1.36-.48,1.84,0,.25,.25,.38,.58,.38,.92s-.13,.67-.38,.92c-.24,.24-.58,.38-.92,.38Z"/>
          <path class="cls-6" d="M32,9.8c-.34,0-.68-.14-.92-.38-.24-.24-.38-.58-.38-.92s.14-.68,.38-.92c.49-.48,1.36-.48,1.84,0,.24,.24,.38,.58,.38,.92s-.14,.68-.38,.92c-.24,.24-.57,.38-.92,.38Z"/>
          <path class="cls-6" d="M34,6.8c-.34,0-.68-.14-.92-.38-.24-.24-.38-.58-.38-.92s.14-.68,.38-.92c.48-.48,1.36-.48,1.84,0,.24,.24,.38,.58,.38,.92s-.14,.68-.38,.92c-.24,.24-.57,.38-.92,.38Z"/>
          <path class="cls-6" d="M36.75,3.3c-.34,0-.68-.14-.92-.38-.24-.24-.38-.58-.38-.92s.14-.68,.38-.92c.49-.48,1.36-.48,1.84,0,.25,.25,.38,.58,.38,.92s-.13,.67-.38,.92c-.24,.24-.58,.38-.92,.38Z"/>
          <path class="cls-6" d="M37.5,6.55c-.34,0-.68-.14-.92-.38-.24-.24-.38-.58-.38-.92s.14-.68,.38-.92c.49-.49,1.36-.48,1.84,0,.25,.25,.38,.58,.38,.92s-.13,.67-.38,.92c-.24,.24-.58,.38-.92,.38Z"/>
          <path class="cls-6" d="M37.25,9.55c-.34,0-.67-.14-.92-.38-.24-.24-.38-.58-.38-.92s.14-.68,.38-.92c.49-.48,1.36-.48,1.84,0,.25,.25,.38,.58,.38,.92s-.13,.67-.38,.92c-.24,.24-.58,.38-.92,.38Z"/>
          <path class="cls-6" d="M37.5,13.3c-.34,0-.68-.14-.92-.38-.24-.24-.38-.58-.38-.92s.14-.68,.38-.92c.49-.48,1.36-.48,1.84,0,.25,.25,.38,.58,.38,.92s-.13,.67-.38,.92c-.24,.24-.58,.38-.92,.38Z"/>
          <path class="cls-6" d="M41,5.05c-.34,0-.67-.14-.92-.38-.24-.24-.38-.58-.38-.92s.14-.68,.38-.92c.48-.48,1.36-.48,1.84,0,.24,.24,.38,.58,.38,.92s-.14,.68-.38,.92c-.24,.24-.58,.38-.92,.38Z"/>
          <path class="cls-6" d="M41.75,8.8c-.34,0-.67-.14-.92-.38-.24-.24-.38-.58-.38-.92s.14-.68,.38-.92c.49-.48,1.36-.48,1.84,0,.24,.24,.38,.58,.38,.92s-.14,.68-.38,.92c-.24,.24-.58,.38-.92,.38Z"/>
          <path class="cls-6" d="M41.25,12.8c-.34,0-.67-.14-.92-.38-.24-.24-.38-.58-.38-.92s.14-.68,.38-.92c.48-.48,1.36-.49,1.84,0,.24,.24,.38,.58,.38,.92s-.14,.67-.38,.92c-.24,.24-.58,.38-.92,.38Z"/>
          <path class="cls-6" d="M41.5,17.3c-.34,0-.67-.14-.92-.38-.24-.24-.38-.58-.38-.92s.14-.68,.38-.92c.48-.48,1.36-.48,1.84,0,.24,.24,.38,.58,.38,.92s-.14,.68-.38,.92c-.24,.24-.58,.38-.92,.38Z"/>
          <path class="cls-6" d="M43,20.8c-.34,0-.67-.14-.92-.38-.24-.24-.38-.58-.38-.92s.14-.68,.38-.92c.48-.48,1.36-.49,1.84,0,.24,.24,.38,.58,.38,.92s-.14,.68-.38,.92c-.24,.24-.58,.38-.92,.38Z"/>
          <path class="cls-6" d="M38.25,20.55c-.34,0-.67-.14-.92-.38-.24-.24-.38-.58-.38-.92s.14-.68,.38-.92c.48-.48,1.36-.48,1.84,0,.24,.24,.38,.58,.38,.92s-.14,.68-.38,.92c-.24,.24-.58,.38-.92,.38Z"/>
          <path class="cls-6" d="M39.5,25.05c-.34,0-.67-.14-.92-.38-.24-.24-.38-.58-.38-.92s.14-.68,.38-.92c.49-.48,1.36-.48,1.84,0,.24,.24,.38,.58,.38,.92s-.14,.68-.38,.92c-.24,.24-.58,.38-.92,.38Z"/>
          <path class="cls-6" d="M35.25,24.8c-.34,0-.67-.14-.92-.38-.24-.24-.38-.58-.38-.92s.14-.68,.38-.92c.49-.48,1.36-.48,1.84,0,.24,.24,.38,.58,.38,.92s-.14,.68-.38,.92c-.24,.24-.58,.38-.92,.38Z"/>
          <path class="cls-6" d="M47,22.3c-.34,0-.68-.14-.92-.38-.24-.24-.38-.58-.38-.92s.14-.68,.38-.92c.49-.48,1.36-.48,1.84,0,.24,.24,.38,.58,.38,.92s-.14,.68-.38,.92c-.24,.24-.57,.38-.92,.38Z"/>
          <path class="cls-6" d="M46,18.8c-.34,0-.67-.14-.92-.38-.24-.24-.38-.58-.38-.92s.14-.68,.38-.92c.49-.48,1.36-.48,1.84,0,.24,.24,.38,.58,.38,.92s-.14,.68-.38,.92c-.24,.24-.58,.38-.92,.38Z"/>
          <path class="cls-6" d="M45,15.3c-.34,0-.68-.14-.92-.38-.24-.24-.38-.58-.38-.92s.14-.68,.38-.92c.49-.48,1.36-.48,1.84,0,.24,.24,.38,.58,.38,.92s-.14,.68-.38,.92c-.24,.24-.57,.38-.92,.38Z"/>
          <path class="cls-6" d="M45.25,11.3c-.34,0-.68-.14-.92-.38-.24-.24-.38-.58-.38-.92s.14-.68,.38-.92c.49-.48,1.36-.48,1.84,0,.24,.24,.38,.58,.38,.92s-.14,.68-.38,.92c-.24,.24-.58,.38-.92,.38Z"/>
          <path class="cls-6" d="M45,7.05c-.34,0-.67-.14-.92-.38-.24-.24-.38-.58-.38-.92s.14-.68,.38-.92c.49-.48,1.35-.48,1.84,0,.24,.24,.38,.58,.38,.92s-.14,.68-.38,.92c-.24,.24-.58,.38-.92,.38Z"/>
          <path class="cls-6" d="M44.75,3.8c-.34,0-.68-.14-.92-.38-.24-.24-.38-.58-.38-.92s.14-.68,.38-.92c.49-.48,1.36-.48,1.84,0,.24,.24,.38,.58,.38,.92s-.14,.68-.38,.92c-.24,.24-.57,.38-.92,.38Z"/>
          <path class="cls-6" d="M49.75,2.8c-.34,0-.67-.14-.92-.38-.24-.24-.38-.58-.38-.92s.14-.68,.38-.92c.49-.48,1.36-.48,1.84,0,.24,.24,.38,.58,.38,.92s-.14,.68-.38,.92c-.24,.24-.58,.38-.92,.38Z"/>
          <path class="cls-6" d="M49,7.05c-.34,0-.68-.14-.92-.38-.24-.24-.38-.58-.38-.92s.14-.68,.38-.92c.49-.48,1.36-.48,1.84,0,.24,.24,.38,.58,.38,.92s-.14,.68-.38,.92c-.24,.24-.58,.38-.92,.38Z"/>
          <path class="cls-6" d="M52.5,7.05c-.34,0-.67-.14-.92-.38-.24-.24-.38-.58-.38-.92s.14-.67,.38-.92c.48-.48,1.35-.48,1.84,0,.24,.24,.38,.58,.38,.92s-.14,.68-.38,.92c-.24,.24-.58,.38-.92,.38Z"/>
          <path class="cls-6" d="M52.25,10.55c-.34,0-.67-.14-.92-.38-.24-.24-.38-.58-.38-.92s.14-.67,.38-.92c.49-.48,1.36-.48,1.84,0,.25,.24,.38,.58,.38,.92s-.13,.68-.38,.92c-.24,.24-.58,.38-.92,.38Z"/>
          <path class="cls-6" d="M48.5,10.3c-.34,0-.67-.14-.92-.38-.24-.24-.38-.58-.38-.92s.14-.68,.38-.92c.48-.48,1.36-.48,1.84,0,.24,.24,.38,.58,.38,.92s-.14,.68-.38,.92c-.24,.24-.58,.38-.92,.38Z"/>
          <path class="cls-6" d="M48.75,14.8c-.34,0-.67-.14-.92-.38-.24-.24-.38-.58-.38-.92s.14-.68,.38-.92c.49-.48,1.35-.48,1.84,0,.24,.24,.38,.58,.38,.92s-.14,.68-.38,.92c-.24,.24-.58,.38-.92,.38Z"/>
          <path class="cls-6" d="M52.25,14.8c-.34,0-.67-.14-.92-.38-.24-.24-.38-.58-.38-.92s.14-.68,.38-.92c.49-.48,1.36-.48,1.84,0,.25,.24,.38,.58,.38,.92s-.14,.68-.38,.92c-.24,.24-.58,.38-.92,.38Z"/>
          <path class="cls-6" d="M49.5,18.3c-.34,0-.67-.14-.92-.38-.24-.24-.38-.58-.38-.92s.14-.68,.38-.92c.49-.48,1.35-.48,1.84,0,.24,.24,.38,.58,.38,.92s-.14,.68-.38,.92c-.24,.24-.58,.38-.92,.38Z"/>
          <path class="cls-6" d="M51,22.55c-.34,0-.67-.14-.92-.38-.24-.24-.38-.58-.38-.92s.14-.67,.38-.92c.49-.48,1.35-.48,1.84,0,.24,.24,.38,.58,.38,.92s-.14,.68-.38,.92c-.24,.24-.58,.38-.92,.38Z"/>
          <path class="cls-6" d="M52.75,25.8c-.34,0-.67-.14-.92-.38-.24-.24-.38-.58-.38-.92s.14-.68,.38-.92c.49-.48,1.35-.48,1.84,0,.24,.24,.38,.58,.38,.92s-.14,.68-.38,.92c-.24,.24-.58,.38-.92,.38Z"/>
          <path class="cls-6" d="M55.25,23.05c-.34,0-.68-.14-.92-.38-.24-.24-.38-.58-.38-.92s.14-.68,.38-.92c.49-.48,1.36-.48,1.84,0,.24,.24,.38,.58,.38,.92s-.14,.68-.38,.92c-.24,.24-.57,.38-.92,.38Z"/>
          <path class="cls-6" d="M53.75,19.55c-.34,0-.67-.14-.92-.38-.24-.24-.38-.58-.38-.92s.14-.68,.38-.92c.48-.48,1.36-.48,1.84,0,.24,.24,.38,.58,.38,.92s-.14,.68-.38,.92c-.24,.24-.58,.38-.92,.38Z"/>
          <path class="cls-6" d="M56,16.55c-.34,0-.67-.14-.92-.38-.24-.24-.38-.58-.38-.92s.14-.68,.38-.92c.48-.48,1.35-.48,1.84,0,.24,.24,.38,.58,.38,.92s-.14,.68-.38,.92c-.24,.24-.58,.38-.92,.38Z"/>
          <path class="cls-6" d="M56.25,12.3c-.34,0-.68-.14-.92-.38-.24-.24-.38-.58-.38-.92s.14-.68,.38-.92c.49-.48,1.35-.48,1.84,0,.24,.24,.38,.58,.38,.92s-.14,.68-.38,.92c-.24,.24-.58,.38-.92,.38Z"/>
          <path class="cls-6" d="M56.5,7.3c-.34,0-.68-.14-.92-.38-.24-.24-.38-.58-.38-.92s.14-.68,.38-.92c.49-.48,1.35-.48,1.84,0,.24,.24,.38,.58,.38,.92s-.14,.68-.38,.92c-.24,.24-.58,.38-.92,.38Z"/>
          <path class="cls-6" d="M59.75,8.3c-.34,0-.67-.14-.92-.38-.24-.25-.38-.58-.38-.92s.14-.67,.38-.92c.49-.48,1.35-.48,1.84,0,.24,.24,.38,.58,.38,.92s-.14,.68-.38,.92c-.24,.24-.58,.38-.92,.38Z"/>
          <path class="cls-6" d="M58,3.8c-.34,0-.68-.14-.92-.38-.24-.24-.38-.58-.38-.92s.14-.68,.38-.92c.49-.48,1.36-.48,1.84,0,.24,.24,.38,.58,.38,.92s-.14,.68-.38,.92c-.24,.24-.57,.38-.92,.38Z"/>
          <path class="cls-6" d="M61.75,4.8c-.34,0-.67-.14-.92-.38-.24-.24-.38-.58-.38-.92s.14-.68,.38-.92c.49-.48,1.36-.48,1.84,0,.24,.24,.38,.58,.38,.92s-.14,.68-.38,.92c-.24,.24-.58,.38-.92,.38Z"/>
          <path class="cls-6" d="M65,3.05c-.34,0-.67-.14-.92-.38-.24-.24-.38-.58-.38-.92s.14-.68,.38-.92c.48-.48,1.36-.48,1.84,0,.24,.24,.38,.58,.38,.92s-.14,.68-.38,.92c-.24,.24-.58,.38-.92,.38Z"/>
          <path class="cls-6" d="M67,5.05c-.34,0-.68-.14-.92-.38-.24-.24-.38-.58-.38-.92s.14-.68,.38-.92c.49-.49,1.37-.48,1.84,0,.24,.24,.38,.58,.38,.92s-.14,.68-.38,.92c-.24,.24-.58,.38-.92,.38Z"/>
          <path class="cls-6" d="M63.5,8.05c-.34,0-.67-.14-.92-.38-.24-.24-.38-.58-.38-.92s.14-.68,.38-.92c.48-.48,1.37-.48,1.84,0,.24,.24,.38,.58,.38,.92s-.14,.68-.38,.92c-.24,.24-.58,.38-.92,.38Z"/>
          <path class="cls-6" d="M62.75,11.8c-.34,0-.67-.14-.92-.38-.24-.24-.38-.58-.38-.92s.14-.67,.38-.92c.49-.48,1.35-.48,1.84,0,.24,.24,.38,.58,.38,.92s-.14,.68-.38,.92c-.24,.24-.58,.38-.92,.38Z"/>
          <path class="cls-6" d="M60,14.05c-.34,0-.67-.14-.92-.38-.24-.24-.38-.58-.38-.92s.14-.68,.38-.92c.49-.48,1.36-.48,1.84,0,.24,.24,.38,.58,.38,.92s-.14,.68-.38,.92c-.24,.24-.58,.38-.92,.38Z"/>
          <path class="cls-6" d="M62.5,16.8c-.34,0-.67-.14-.92-.38-.24-.24-.38-.58-.38-.92s.14-.68,.38-.92c.48-.48,1.36-.48,1.84,0,.24,.24,.38,.58,.38,.92s-.14,.68-.38,.92c-.24,.24-.58,.38-.92,.38Z"/>
          <path class="cls-6" d="M66.25,17.8c-.34,0-.67-.14-.92-.38-.24-.24-.38-.58-.38-.92s.14-.68,.38-.92c.49-.48,1.36-.48,1.84,0,.24,.24,.38,.58,.38,.92s-.14,.68-.38,.92c-.24,.24-.58,.38-.92,.38Z"/>
          <path class="cls-6" d="M64.25,20.05c-.34,0-.67-.14-.92-.38-.24-.24-.38-.58-.38-.92s.14-.68,.38-.92c.48-.48,1.35-.48,1.84,0,.24,.24,.38,.58,.38,.92s-.14,.68-.38,.92c-.24,.24-.58,.38-.92,.38Z"/>
          <path class="cls-6" d="M60.75,20.55c-.34,0-.67-.14-.92-.38-.24-.24-.38-.58-.38-.92s.14-.68,.38-.92c.49-.48,1.36-.48,1.84,0,.24,.24,.38,.58,.38,.92s-.14,.68-.38,.92c-.24,.24-.58,.38-.92,.38Z"/>
          <path class="cls-6" d="M58,20.05c-.34,0-.67-.14-.92-.38-.24-.24-.38-.58-.38-.92s.14-.68,.38-.92c.49-.48,1.36-.48,1.84,0,.24,.24,.38,.58,.38,.92s-.14,.68-.38,.92c-.24,.24-.58,.38-.92,.38Z"/>
          <path class="cls-6" d="M59.75,24.3c-.34,0-.68-.14-.92-.38-.24-.25-.38-.58-.38-.92s.14-.67,.38-.92c.49-.48,1.35-.48,1.84,0,.24,.24,.38,.58,.38,.92s-.14,.68-.38,.92c-.24,.24-.57,.38-.92,.38Z"/>
          <path class="cls-6" d="M64.25,23.05c-.34,0-.67-.14-.92-.38-.24-.24-.38-.58-.38-.92s.14-.68,.38-.92c.48-.48,1.35-.48,1.84,0,.24,.24,.38,.58,.38,.92s-.14,.68-.38,.92c-.24,.24-.58,.38-.92,.38Z"/>
          <path class="cls-6" d="M68.5,24.05c-.34,0-.68-.14-.92-.38-.24-.25-.38-.58-.38-.92s.14-.67,.38-.92c.49-.49,1.37-.48,1.84,0,.24,.24,.38,.58,.38,.92s-.14,.68-.38,.92c-.24,.24-.58,.38-.92,.38Z"/>
          <path class="cls-6" d="M68.5,20.55c-.34,0-.68-.14-.92-.38-.24-.24-.38-.58-.38-.92s.14-.68,.38-.92c.5-.49,1.36-.48,1.84,0,.24,.24,.38,.58,.38,.92s-.14,.68-.38,.92c-.24,.24-.58,.38-.92,.38Z"/>
          <path class="cls-6" d="M65.5,13.8c-.34,0-.67-.14-.92-.38-.24-.24-.38-.58-.38-.92s.14-.68,.38-.92c.49-.48,1.36-.48,1.84,0,.24,.24,.38,.58,.38,.92s-.14,.68-.38,.92c-.24,.24-.58,.38-.92,.38Z"/>
          <path class="cls-6" d="M66.25,10.05c-.34,0-.67-.14-.92-.38-.24-.24-.38-.58-.38-.92s.14-.68,.38-.92c.49-.49,1.36-.48,1.84,0,.24,.24,.38,.58,.38,.92s-.14,.68-.38,.92c-.24,.24-.58,.38-.92,.38Z"/>
          <path class="cls-6" d="M69.75,8.05c-.34,0-.67-.14-.92-.38-.24-.24-.38-.58-.38-.92s.14-.67,.38-.92c.48-.49,1.36-.49,1.84,0,.24,.24,.38,.58,.38,.92s-.14,.68-.38,.92c-.24,.24-.58,.38-.92,.38Z"/>
          <path class="cls-6" d="M70.75,3.3c-.34,0-.67-.14-.92-.38-.24-.25-.38-.58-.38-.92s.14-.68,.38-.92c.49-.48,1.36-.48,1.84,0,.24,.24,.38,.58,.38,.92s-.14,.68-.38,.92c-.24,.24-.58,.38-.92,.38Z"/>
          <path class="cls-6" d="M69.75,14.55c-.34,0-.68-.14-.92-.38-.24-.24-.38-.58-.38-.92s.14-.68,.38-.92c.49-.48,1.36-.48,1.84,0,.24,.24,.38,.58,.38,.92s-.14,.68-.38,.92c-.24,.24-.58,.38-.92,.38Z"/>
          <path class="cls-6" d="M71.5,18.05c-.34,0-.67-.14-.92-.38-.24-.24-.38-.58-.38-.92s.14-.68,.38-.92c.48-.48,1.36-.48,1.84,0,.24,.24,.38,.58,.38,.92s-.14,.68-.38,.92c-.24,.24-.58,.38-.92,.38Z"/>
          <path class="cls-6" d="M56.5,7.3c-.34,0-.68-.14-.92-.38-.24-.24-.38-.58-.38-.92s.14-.68,.38-.92c.49-.48,1.35-.48,1.84,0,.24,.24,.38,.58,.38,.92s-.14,.68-.38,.92c-.24,.24-.58,.38-.92,.38Z"/>
          <path class="cls-6" d="M58,3.8c-.34,0-.68-.14-.92-.38-.24-.24-.38-.58-.38-.92s.14-.68,.38-.92c.49-.48,1.36-.48,1.84,0,.24,.24,.38,.58,.38,.92s-.14,.68-.38,.92c-.24,.24-.57,.38-.92,.38Z"/>
          <path class="cls-6" d="M54,4.55c-.34,0-.68-.14-.92-.38-.24-.24-.38-.58-.38-.92s.14-.68,.38-.92c.49-.48,1.36-.48,1.84,0,.24,.24,.38,.58,.38,.92s-.14,.68-.38,.92c-.24,.24-.58,.38-.92,.38Z"/>
          <path class="cls-6" d="M24,24.05c-.34,0-.67-.14-.92-.38-.24-.24-.38-.58-.38-.92s.14-.68,.38-.92c.49-.48,1.36-.48,1.84,0,.24,.24,.38,.58,.38,.92s-.14,.68-.38,.92c-.24,.24-.58,.38-.92,.38Z"/>
          <path class="cls-6" d="M20,21.3c-.34,0-.67-.14-.92-.38-.24-.24-.38-.58-.38-.92s.14-.67,.38-.92c.49-.48,1.36-.48,1.84,0,.24,.25,.38,.58,.38,.92s-.14,.68-.38,.92c-.24,.24-.57,.38-.92,.38Z"/>
          <path class="cls-6" d="M16,22.3c-.34,0-.68-.14-.92-.38-.24-.24-.38-.58-.38-.92s.14-.67,.38-.92c.49-.48,1.36-.48,1.84,0,.24,.25,.38,.58,.38,.92s-.14,.68-.38,.92c-.24,.24-.58,.38-.92,.38Z"/>
          <path class="cls-6" d="M17,18.3c-.34,0-.67-.14-.92-.38-.24-.24-.38-.58-.38-.92s.14-.68,.38-.92c.49-.48,1.35-.48,1.84,0,.24,.24,.38,.58,.38,.92s-.14,.68-.38,.92c-.24,.24-.58,.38-.92,.38Z"/>
          <path class="cls-6" d="M14.75,15.3c-.34,0-.67-.14-.92-.38-.24-.24-.38-.58-.38-.92s.14-.67,.38-.92c.49-.49,1.36-.48,1.84,0,.24,.25,.38,.58,.38,.92s-.14,.67-.38,.92c-.24,.24-.58,.38-.92,.38Z"/>
          <path class="cls-6" d="M12.5,12.55c-.34,0-.67-.14-.92-.38-.24-.24-.38-.58-.38-.92s.14-.67,.38-.92c.49-.48,1.36-.48,1.84,0,.24,.24,.38,.58,.38,.92s-.14,.68-.38,.92c-.24,.24-.58,.38-.92,.38Z"/>
          <path class="cls-6" d="M12.5,18.8c-.34,0-.68-.14-.92-.38-.24-.24-.38-.58-.38-.92s.14-.68,.38-.92c.49-.48,1.36-.48,1.84,0,.24,.24,.38,.58,.38,.92s-.14,.68-.38,.92c-.24,.24-.57,.38-.92,.38Z"/>
          <path class="cls-6" d="M16,22.3c-.34,0-.68-.14-.92-.38-.24-.24-.38-.58-.38-.92s.14-.67,.38-.92c.49-.48,1.36-.48,1.84,0,.24,.25,.38,.58,.38,.92s-.14,.68-.38,.92c-.24,.24-.58,.38-.92,.38Z"/>
          <path class="cls-6" d="M18.5,24.55c-.34,0-.67-.14-.92-.38-.24-.24-.38-.58-.38-.92s.14-.68,.38-.92c.48-.48,1.36-.49,1.84,0,.24,.24,.38,.58,.38,.92s-.14,.67-.38,.92c-.24,.24-.58,.38-.92,.38Z"/>
          <path class="cls-6" d="M14,26.05c-.34,0-.68-.14-.92-.38-.24-.24-.38-.58-.38-.92s.14-.68,.38-.92c.49-.49,1.36-.48,1.84,0,.24,.24,.38,.58,.38,.92s-.14,.68-.38,.92c-.24,.24-.58,.38-.92,.38Z"/>
          <path class="cls-6" d="M11.5,23.05c-.34,0-.67-.14-.92-.38-.24-.24-.38-.58-.38-.92s.14-.67,.38-.92c.48-.48,1.36-.48,1.84,0,.24,.25,.38,.58,.38,.92s-.14,.68-.38,.92c-.24,.24-.58,.38-.92,.38Z"/>
          <path class="cls-6" d="M24,16.55c-.34,0-.68-.14-.92-.38-.24-.24-.38-.58-.38-.92s.14-.68,.38-.92c.49-.48,1.36-.48,1.84,0,.24,.24,.38,.58,.38,.92s-.14,.68-.38,.92c-.24,.24-.57,.38-.92,.38Z"/>
          <path class="cls-6" d="M2,7.05c-.34,0-.68-.14-.92-.38-.24-.24-.38-.58-.38-.92s.14-.67,.38-.92c.5-.49,1.36-.48,1.84,0,.24,.25,.38,.58,.38,.92s-.14,.68-.38,.92c-.24,.24-.58,.38-.92,.38Z"/>
          <path class="cls-6" d="M3.25,16.55c-.34,0-.68-.14-.92-.38-.24-.24-.38-.58-.38-.92s.14-.68,.38-.92c.49-.48,1.36-.49,1.84,0,.24,.24,.38,.58,.38,.92s-.14,.68-.38,.92c-.24,.24-.58,.38-.92,.38Z"/>
          <path class="cls-6" d="M5.25,19.8c-.34,0-.68-.14-.92-.38-.24-.24-.38-.58-.38-.92s.14-.68,.38-.92c.49-.49,1.36-.48,1.84,0,.25,.25,.38,.58,.38,.92s-.13,.68-.38,.92c-.24,.24-.58,.38-.92,.38Z"/>
          <path class="cls-6" d="M3.75,13.05c-.34,0-.67-.14-.92-.38-.24-.24-.38-.58-.38-.92s.14-.68,.38-.92c.49-.48,1.35-.48,1.84,0,.24,.24,.38,.58,.38,.92s-.14,.68-.38,.92c-.24,.24-.58,.38-.92,.38Z"/>
          <path class="cls-6" d="M9,5.8c-.34,0-.67-.14-.92-.38-.24-.24-.38-.58-.38-.92s.14-.68,.38-.92c.48-.48,1.36-.48,1.84,0,.24,.24,.38,.58,.38,.92s-.14,.68-.38,.92c-.24,.24-.58,.38-.92,.38Z"/>
          <path class="cls-6" d="M5.75,6.3c-.34,0-.67-.14-.92-.38-.24-.24-.38-.58-.38-.92s.14-.68,.38-.92c.48-.48,1.36-.48,1.84,0,.24,.24,.38,.58,.38,.92s-.14,.67-.38,.92c-.24,.24-.58,.38-.92,.38Z"/>
          <path class="cls-6" d="M6,9.55c-.34,0-.67-.14-.92-.38-.24-.24-.38-.58-.38-.92s.14-.68,.38-.92c.49-.48,1.36-.49,1.84,0,.24,.25,.38,.58,.38,.92s-.14,.68-.38,.92c-.24,.24-.58,.38-.92,.38Z"/>
          <path class="cls-6" d="M10.75,8.8c-.34,0-.67-.14-.92-.38-.24-.24-.38-.58-.38-.92s.14-.67,.38-.92c.49-.48,1.36-.48,1.84,0,.24,.25,.38,.58,.38,.92s-.14,.68-.38,.92c-.24,.24-.58,.38-.92,.38Z"/>
          <path class="cls-6" d="M3.75,3.55c-.34,0-.68-.14-.92-.38-.24-.24-.38-.58-.38-.92s.14-.68,.38-.92c.49-.48,1.36-.48,1.84,0,.24,.24,.38,.58,.38,.92s-.14,.68-.38,.92c-.24,.24-.58,.38-.92,.38Z"/>
          <path class="cls-6" d="M7,14.3c-.34,0-.67-.14-.92-.38-.24-.24-.38-.58-.38-.92s.14-.68,.38-.92c.48-.48,1.36-.48,1.84,0,.24,.25,.38,.58,.38,.92s-.14,.67-.38,.92c-.24,.24-.58,.38-.92,.38Z"/>
          <path class="cls-6" d="M9.75,12.05c-.34,0-.67-.14-.92-.38-.24-.25-.38-.58-.38-.92s.14-.68,.38-.92c.49-.48,1.36-.48,1.84,0,.24,.24,.38,.58,.38,.92s-.14,.68-.38,.92c-.24,.24-.58,.38-.92,.38Z"/>
          <path class="cls-6" d="M9.75,16.05c-.34,0-.67-.14-.92-.38-.24-.25-.38-.58-.38-.92s.14-.68,.38-.92c.49-.48,1.36-.48,1.84,0,.24,.24,.38,.58,.38,.92s-.14,.67-.38,.92c-.24,.24-.58,.38-.92,.38Z"/>
          <path class="cls-6" d="M12.5,18.8c-.34,0-.68-.14-.92-.38-.24-.24-.38-.58-.38-.92s.14-.68,.38-.92c.49-.48,1.36-.48,1.84,0,.24,.24,.38,.58,.38,.92s-.14,.68-.38,.92c-.24,.24-.57,.38-.92,.38Z"/>
          <path class="cls-6" d="M8.25,20.55c-.34,0-.67-.14-.92-.38-.24-.24-.38-.58-.38-.92s.14-.67,.38-.92c.48-.48,1.36-.48,1.84,0,.24,.25,.38,.58,.38,.92s-.14,.68-.38,.92c-.24,.24-.58,.38-.92,.38Z"/>
          <path class="cls-6" d="M5.75,26.05c-.34,0-.67-.14-.92-.38-.24-.24-.38-.58-.38-.92s.14-.68,.38-.92c.48-.48,1.36-.48,1.84,0,.24,.24,.38,.58,.38,.92s-.14,.67-.38,.92c-.24,.24-.58,.38-.92,.38Z"/>
          <path class="cls-6" d="M5,23.05c-.34,0-.68-.14-.92-.38-.24-.24-.38-.58-.38-.92s.14-.68,.38-.92c.48-.48,1.36-.48,1.84,0,.24,.25,.38,.58,.38,.92s-.14,.67-.38,.92c-.24,.24-.58,.38-.92,.38Z"/>
          <path class="cls-6" d="M15,71.8c-.34,0-.67-.14-.92-.38-.24-.24-.38-.58-.38-.92s.14-.68,.38-.92c.49-.48,1.36-.48,1.84,0,.24,.25,.38,.58,.38,.92s-.14,.68-.38,.92c-.24,.24-.58,.38-.92,.38Z"/>
          <path class="cls-6" d="M15,71.8c-.34,0-.67-.14-.92-.38-.24-.24-.38-.58-.38-.92s.14-.68,.38-.92c.49-.48,1.36-.48,1.84,0,.24,.25,.38,.58,.38,.92s-.14,.68-.38,.92c-.24,.24-.58,.38-.92,.38Z"/>
          <path class="cls-6" d="M18.5,70.8c-.34,0-.67-.14-.92-.38-.24-.24-.38-.58-.38-.92s.14-.68,.38-.92c.49-.48,1.36-.48,1.84,0,.24,.24,.38,.58,.38,.92s-.14,.68-.38,.92c-.24,.24-.58,.38-.92,.38Z"/>
          <path class="cls-6" d="M24,71.8c-.34,0-.67-.14-.92-.38-.24-.24-.38-.58-.38-.92s.14-.68,.38-.92c.49-.48,1.36-.48,1.84,0,.24,.24,.38,.58,.38,.92s-.14,.68-.38,.92c-.24,.24-.57,.38-.92,.38Z"/>
          <path class="cls-6" d="M29.25,71.3c-.34,0-.68-.14-.92-.38-.24-.24-.38-.58-.38-.92s.14-.68,.38-.92c.49-.48,1.36-.48,1.84,0,.24,.24,.38,.58,.38,.92s-.14,.68-.38,.92c-.24,.24-.57,.38-.92,.38Z"/>
          <path class="cls-6" d="M32.75,71.8c-.34,0-.67-.14-.92-.38-.24-.24-.38-.58-.38-.92s.14-.68,.38-.92c.49-.48,1.36-.48,1.84,0,.24,.24,.38,.58,.38,.92s-.14,.67-.38,.92c-.24,.24-.58,.38-.92,.38Z"/>
          <path class="cls-6" d="M37.75,71.3c-.34,0-.67-.14-.92-.38-.24-.24-.38-.58-.38-.92s.14-.68,.38-.92c.49-.48,1.36-.48,1.84,0,.24,.24,.38,.58,.38,.92s-.14,.68-.38,.92c-.24,.24-.58,.38-.92,.38Z"/>
          <path class="cls-6" d="M45,68.55c-.34,0-.68-.14-.92-.38-.24-.24-.38-.58-.38-.92s.14-.68,.38-.92c.49-.48,1.36-.48,1.84,0,.24,.24,.38,.58,.38,.92s-.14,.68-.38,.92c-.24,.24-.58,.38-.92,.38Z"/>
          <path class="cls-6" d="M49.75,70.3c-.34,0-.67-.14-.92-.38-.24-.24-.38-.58-.38-.92s.14-.68,.38-.92c.49-.48,1.36-.48,1.84,0,.24,.24,.38,.58,.38,.92s-.14,.68-.38,.92c-.24,.24-.58,.38-.92,.38Z"/>
          <path class="cls-6" d="M59.75,71.8c-.34,0-.67-.14-.92-.38-.24-.25-.38-.58-.38-.92s.14-.67,.38-.92c.49-.48,1.35-.49,1.84,0,.24,.24,.38,.58,.38,.92s-.14,.68-.38,.92c-.24,.24-.58,.38-.92,.38Z"/>
          <path class="cls-6" d="M67.75,72.55c-.34,0-.68-.14-.92-.38-.24-.24-.38-.58-.38-.92s.14-.68,.38-.92c.48-.48,1.36-.48,1.84,0,.24,.24,.38,.58,.38,.92s-.14,.68-.38,.92c-.24,.24-.57,.38-.92,.38Z"/>
          <path class="cls-6" d="M55,73.55c-.34,0-.68-.14-.92-.38-.24-.24-.38-.58-.38-.92s.14-.68,.38-.92c.49-.48,1.36-.48,1.84,0,.24,.24,.38,.58,.38,.92s-.14,.68-.38,.92c-.24,.24-.58,.38-.92,.38Z"/>
          <path class="cls-6" d="M53.75,69.8c-.34,0-.68-.14-.92-.38-.24-.24-.38-.58-.38-.92s.14-.68,.38-.92c.49-.48,1.36-.48,1.84,0,.24,.24,.38,.58,.38,.92s-.14,.68-.38,.92c-.24,.24-.58,.38-.92,.38Z"/>
          <path class="cls-6" d="M10.25,70.8c-.34,0-.67-.14-.92-.38-.24-.24-.38-.58-.38-.92s.14-.68,.38-.92c.49-.48,1.36-.48,1.84,0,.24,.24,.38,.58,.38,.92s-.14,.68-.38,.92c-.24,.24-.58,.38-.92,.38Z"/>
          <path class="cls-6" d="M5.75,71.05c-.34,0-.68-.14-.92-.38-.24-.24-.38-.58-.38-.92s.14-.68,.38-.92c.49-.48,1.35-.49,1.84,0,.24,.25,.38,.58,.38,.92s-.14,.68-.38,.92c-.24,.24-.58,.38-.92,.38Z"/>
          <path class="cls-6" d="M22,26.8c-.34,0-.67-.14-.92-.38-.24-.24-.38-.58-.38-.92s.14-.68,.38-.92c.48-.48,1.36-.48,1.84,0,.24,.24,.38,.58,.38,.92s-.14,.68-.38,.92c-.24,.24-.57,.38-.92,.38Z"/>
          <path class="cls-6" d="M26.5,27.8c-.34,0-.67-.14-.92-.38-.24-.24-.38-.58-.38-.92s.14-.68,.38-.92c.49-.48,1.36-.48,1.84,0,.24,.25,.38,.58,.38,.92s-.14,.68-.38,.92c-.24,.24-.58,.38-.92,.38Z"/>
          <path class="cls-6" d="M30.25,25.8c-.34,0-.67-.14-.92-.38-.24-.24-.38-.58-.38-.92s.14-.68,.38-.92c.49-.48,1.36-.48,1.84,0,.24,.24,.38,.58,.38,.92s-.14,.68-.38,.92c-.24,.24-.58,.38-.92,.38Z"/>
          <path class="cls-6" d="M29,29.8c-.34,0-.68-.14-.92-.38-.24-.24-.38-.58-.38-.92s.14-.68,.38-.92c.49-.48,1.36-.48,1.84,0,.24,.24,.38,.58,.38,.92s-.14,.68-.38,.92c-.24,.24-.57,.38-.92,.38Z"/>
          <path class="cls-6" d="M26.25,31.8c-.34,0-.67-.14-.92-.38-.24-.24-.38-.58-.38-.92s.14-.68,.38-.92c.48-.48,1.36-.49,1.84,0,.24,.24,.38,.58,.38,.92s-.14,.68-.38,.92c-.24,.24-.58,.38-.92,.38Z"/>
          <path class="cls-6" d="M22.75,31.05c-.34,0-.68-.14-.92-.38-.24-.24-.38-.58-.38-.92s.14-.68,.38-.92c.48-.48,1.36-.49,1.84,0,.24,.24,.38,.58,.38,.92s-.14,.68-.38,.92c-.24,.24-.57,.38-.92,.38Z"/>
          <path class="cls-6" d="M19.5,31.8c-.34,0-.67-.14-.92-.38-.24-.24-.38-.58-.38-.92s.14-.68,.38-.92c.48-.48,1.36-.49,1.84,0,.24,.24,.38,.58,.38,.92s-.14,.68-.38,.92c-.24,.24-.58,.38-.92,.38Z"/>
          <path class="cls-6" d="M18,28.05c-.34,0-.68-.14-.92-.38-.24-.24-.38-.58-.38-.92s.14-.68,.38-.92c.49-.48,1.36-.48,1.84,0,.24,.24,.38,.58,.38,.92s-.14,.68-.38,.92c-.24,.24-.58,.38-.92,.38Z"/>
          <path class="cls-6" d="M16,30.55c-.34,0-.68-.14-.92-.38-.24-.24-.38-.58-.38-.92s.14-.68,.38-.92c.49-.48,1.35-.48,1.84,0,.24,.24,.38,.58,.38,.92s-.14,.68-.38,.92c-.24,.24-.57,.38-.92,.38Z"/>
          <path class="cls-6" d="M12.75,29.3c-.34,0-.67-.14-.92-.38-.24-.24-.38-.58-.38-.92s.14-.68,.38-.92c.49-.49,1.36-.48,1.84,0,.24,.25,.38,.58,.38,.92s-.14,.68-.38,.92c-.24,.24-.58,.38-.92,.38Z"/>
          <path class="cls-6" d="M9.5,30.8c-.34,0-.67-.14-.92-.38-.24-.24-.38-.58-.38-.92s.14-.67,.38-.92c.48-.48,1.36-.48,1.84,0,.25,.25,.38,.58,.38,.92s-.13,.68-.38,.92c-.24,.24-.58,.38-.92,.38Z"/>
          <path class="cls-6" d="M8.5,34.05c-.34,0-.67-.14-.92-.38-.24-.24-.38-.58-.38-.92s.14-.68,.38-.92c.48-.48,1.36-.48,1.84,0,.24,.24,.38,.58,.38,.92s-.14,.68-.38,.92c-.24,.24-.58,.38-.92,.38Z"/>
          <path class="cls-6" d="M10,38.3c-.34,0-.67-.14-.92-.38-.24-.24-.38-.58-.38-.92s.14-.68,.38-.92c.48-.48,1.36-.48,1.84,0,.24,.24,.38,.58,.38,.92s-.14,.68-.38,.92c-.24,.24-.58,.38-.92,.38Z"/>
          <path class="cls-6" d="M12.5,35.8c-.34,0-.67-.14-.92-.38-.24-.24-.38-.58-.38-.92s.14-.68,.38-.92c.48-.48,1.36-.48,1.84,0,.24,.24,.38,.58,.38,.92s-.14,.68-.38,.92c-.24,.24-.58,.38-.92,.38Z"/>
          <path class="cls-6" d="M15.25,33.3c-.34,0-.68-.14-.92-.38-.24-.24-.38-.58-.38-.92s.14-.68,.38-.92c.49-.48,1.35-.48,1.84,0,.24,.24,.38,.58,.38,.92s-.14,.68-.38,.92c-.24,.24-.58,.38-.92,.38Z"/>
          <path class="cls-6" d="M19,35.55c-.34,0-.67-.14-.92-.38-.24-.24-.38-.58-.38-.92s.14-.68,.38-.92c.48-.48,1.36-.48,1.84,0,.24,.24,.38,.58,.38,.92s-.14,.68-.38,.92c-.24,.24-.58,.38-.92,.38Z"/>
          <path class="cls-6" d="M16,38.05c-.34,0-.67-.14-.92-.38-.24-.24-.38-.58-.38-.92s.14-.68,.38-.92c.48-.48,1.36-.48,1.84,0,.24,.24,.38,.58,.38,.92s-.14,.68-.38,.92c-.24,.24-.58,.38-.92,.38Z"/>
          <path class="cls-6" d="M13,40.8c-.34,0-.67-.14-.92-.38-.24-.24-.38-.58-.38-.92s.14-.68,.38-.92c.49-.48,1.36-.48,1.84,0,.24,.24,.38,.58,.38,.92s-.14,.68-.38,.92c-.24,.24-.58,.38-.92,.38Z"/>
          <path class="cls-6" d="M9.75,42.55c-.34,0-.67-.14-.92-.38-.24-.25-.38-.58-.38-.92s.14-.68,.38-.92c.49-.48,1.36-.48,1.84,0,.24,.24,.38,.58,.38,.92s-.14,.67-.38,.92c-.24,.24-.58,.38-.92,.38Z"/>
          <path class="cls-6" d="M10,38.3c-.34,0-.67-.14-.92-.38-.24-.24-.38-.58-.38-.92s.14-.68,.38-.92c.48-.48,1.36-.48,1.84,0,.24,.24,.38,.58,.38,.92s-.14,.68-.38,.92c-.24,.24-.58,.38-.92,.38Z"/>
          <path class="cls-6" d="M6.75,39.8c-.34,0-.67-.14-.92-.38-.24-.24-.38-.58-.38-.92s.14-.68,.38-.92c.48-.48,1.36-.48,1.84,0,.24,.24,.38,.58,.38,.92s-.14,.68-.38,.92c-.24,.24-.58,.38-.92,.38Z"/>
          <path class="cls-6" d="M5.75,35.3c-.34,0-.68-.14-.92-.38-.24-.24-.38-.58-.38-.92s.14-.68,.38-.92c.49-.48,1.36-.48,1.84,0,.24,.25,.38,.58,.38,.92s-.14,.68-.38,.92c-.24,.24-.58,.38-.92,.38Z"/>
          <path class="cls-6" d="M5.5,30.05c-.34,0-.67-.14-.92-.38-.24-.24-.38-.58-.38-.92s.14-.68,.38-.92c.49-.48,1.36-.48,1.84,0,.24,.24,.38,.58,.38,.92s-.14,.68-.38,.92c-.24,.24-.58,.38-.92,.38Z"/>
          <path class="cls-6" d="M2.5,32.05c-.34,0-.67-.14-.92-.38-.24-.24-.38-.58-.38-.92s.14-.68,.38-.92c.49-.48,1.35-.48,1.84,0,.25,.25,.38,.58,.38,.92s-.13,.67-.38,.92c-.24,.24-.58,.38-.92,.38Z"/>
          <path class="cls-6" d="M1.75,36.05c-.34,0-.67-.14-.92-.38-.24-.24-.38-.58-.38-.92s.14-.68,.38-.92c.48-.48,1.36-.48,1.84,0,.24,.24,.38,.58,.38,.92s-.14,.68-.38,.92c-.24,.24-.58,.38-.92,.38Z"/>
          <path class="cls-6" d="M1.75,27.55c-.34,0-.67-.14-.92-.38-.24-.25-.38-.58-.38-.92s.14-.67,.38-.92c.49-.48,1.35-.48,1.84,0,.24,.24,.38,.58,.38,.92s-.14,.68-.38,.92c-.24,.24-.58,.38-.92,.38Z"/>
          <path class="cls-6" d="M3,39.55c-.34,0-.68-.14-.92-.38-.24-.24-.38-.58-.38-.92s.14-.68,.38-.92c.49-.48,1.36-.49,1.84,0,.24,.24,.38,.58,.38,.92s-.14,.68-.38,.92c-.24,.24-.58,.38-.92,.38Z"/>
          <path class="cls-6" d="M3.5,43.3c-.34,0-.67-.14-.92-.38-.24-.24-.38-.58-.38-.92s.14-.68,.38-.92c.49-.48,1.36-.48,1.84,0,.24,.24,.38,.58,.38,.92s-.14,.68-.38,.92c-.24,.24-.58,.38-.92,.38Z"/>
          <path class="cls-6" d="M2.75,49.3c-.34,0-.67-.14-.92-.38-.24-.24-.38-.58-.38-.92s.14-.67,.38-.92c.49-.48,1.35-.48,1.84,0,.24,.24,.38,.58,.38,.92s-.14,.68-.38,.92c-.24,.24-.58,.38-.92,.38Z"/>
          <path class="cls-6" d="M3.75,52.3c-.34,0-.67-.14-.92-.38-.24-.24-.38-.58-.38-.92s.14-.67,.38-.92c.49-.48,1.36-.48,1.84,0,.24,.25,.38,.58,.38,.92s-.14,.68-.38,.92c-.24,.24-.58,.38-.92,.38Z"/>
          <path class="cls-6" d="M7.25,50.3c-.34,0-.67-.14-.92-.38-.24-.24-.38-.58-.38-.92s.14-.68,.38-.92c.48-.48,1.36-.48,1.84,0,.24,.24,.38,.58,.38,.92s-.14,.68-.38,.92c-.24,.24-.58,.38-.92,.38Z"/>
          <path class="cls-6" d="M5.5,46.3c-.34,0-.68-.14-.92-.38-.24-.24-.38-.58-.38-.92s.14-.68,.38-.92c.49-.48,1.36-.48,1.84,0,.24,.25,.38,.58,.38,.92s-.14,.68-.38,.92c-.24,.24-.58,.38-.92,.38Z"/>
          <path class="cls-6" d="M9.5,46.8c-.34,0-.67-.14-.92-.38-.24-.24-.38-.58-.38-.92s.14-.68,.38-.92c.48-.48,1.36-.48,1.84,0,.25,.25,.38,.58,.38,.92s-.14,.68-.38,.92c-.24,.24-.58,.38-.92,.38Z"/>
          <path class="cls-6" d="M12,49.8c-.34,0-.67-.14-.92-.38-.24-.24-.38-.58-.38-.92s.14-.67,.38-.92c.48-.48,1.36-.48,1.84,0,.24,.25,.38,.58,.38,.92s-.14,.68-.38,.92c-.24,.24-.58,.38-.92,.38Z"/>
          <path class="cls-6" d="M15,50.8c-.34,0-.68-.14-.92-.38-.24-.24-.38-.58-.38-.92s.14-.68,.38-.92c.49-.48,1.36-.48,1.84,0,.24,.24,.38,.58,.38,.92s-.14,.68-.38,.92c-.24,.24-.58,.38-.92,.38Z"/>
          <path class="cls-6" d="M17.75,52.3c-.34,0-.67-.14-.92-.38-.24-.24-.38-.58-.38-.92s.14-.68,.38-.92c.49-.48,1.36-.48,1.84,0,.24,.24,.38,.58,.38,.92s-.14,.68-.38,.92c-.24,.24-.58,.38-.92,.38Z"/>
          <path class="cls-6" d="M12.5,45.55c-.34,0-.67-.14-.92-.38-.24-.24-.38-.58-.38-.92s.14-.68,.38-.92c.49-.48,1.36-.48,1.84,0,.24,.24,.38,.58,.38,.92s-.14,.68-.38,.92c-.24,.24-.58,.38-.92,.38Z"/>
          <path class="cls-6" d="M16,46.8c-.34,0-.67-.14-.92-.38-.24-.24-.38-.58-.38-.92s.14-.68,.38-.92c.48-.48,1.36-.48,1.84,0,.24,.24,.38,.58,.38,.92s-.14,.68-.38,.92c-.24,.24-.58,.38-.92,.38Z"/>
          <path class="cls-6" d="M19.25,47.8c-.34,0-.68-.14-.92-.38-.24-.24-.38-.58-.38-.92s.14-.67,.38-.92c.49-.48,1.36-.48,1.84,0,.24,.25,.38,.58,.38,.92s-.14,.68-.38,.92c-.24,.24-.57,.38-.92,.38Z"/>
          <path class="cls-6" d="M16.25,42.3c-.34,0-.68-.14-.92-.38-.24-.24-.38-.58-.38-.92s.14-.68,.38-.92c.49-.48,1.36-.48,1.84,0,.24,.24,.38,.58,.38,.92s-.14,.68-.38,.92c-.24,.24-.58,.38-.92,.38Z"/>
          <path class="cls-6" d="M20.25,43.3c-.34,0-.67-.14-.92-.38-.24-.24-.38-.58-.38-.92s.14-.67,.38-.92c.49-.48,1.36-.48,1.84,0,.24,.25,.38,.58,.38,.92s-.14,.68-.38,.92c-.24,.24-.58,.38-.92,.38Z"/>
          <path class="cls-6" d="M21,39.05c-.34,0-.67-.14-.92-.38-.24-.24-.38-.58-.38-.92s.14-.68,.38-.92c.49-.48,1.36-.48,1.84,0,.24,.24,.38,.58,.38,.92s-.14,.68-.38,.92c-.24,.24-.58,.38-.92,.38Z"/>
          <path class="cls-6" d="M23.5,42.05c-.34,0-.68-.14-.92-.38-.24-.24-.38-.58-.38-.92s.14-.68,.38-.92c.48-.48,1.36-.49,1.84,0,.24,.24,.38,.58,.38,.92s-.14,.68-.38,.92c-.24,.24-.57,.38-.92,.38Z"/>
          <path class="cls-6" d="M26.25,39.55c-.34,0-.68-.14-.92-.38-.24-.24-.38-.58-.38-.92s.14-.67,.38-.92c.49-.48,1.36-.48,1.84,0,.24,.25,.38,.58,.38,.92s-.14,.68-.38,.92c-.24,.24-.58,.38-.92,.38Z"/>
          <path class="cls-6" d="M22.5,46.05c-.34,0-.67-.14-.92-.38-.24-.24-.38-.58-.38-.92s.14-.68,.38-.92c.49-.48,1.36-.48,1.84,0,.24,.24,.38,.58,.38,.92s-.14,.68-.38,.92c-.24,.24-.58,.38-.92,.38Z"/>
          <path class="cls-6" d="M26,48.05c-.34,0-.67-.14-.92-.38-.24-.24-.38-.58-.38-.92s.14-.68,.38-.92c.49-.48,1.36-.48,1.84,0,.24,.24,.38,.58,.38,.92s-.14,.68-.38,.92c-.24,.24-.58,.38-.92,.38Z"/>
          <path class="cls-6" d="M26,52.05c-.34,0-.68-.14-.92-.38-.24-.24-.38-.58-.38-.92s.14-.68,.38-.92c.49-.48,1.36-.48,1.84,0,.24,.24,.38,.58,.38,.92s-.14,.68-.38,.92c-.24,.24-.58,.38-.92,.38Z"/>
          <path class="cls-6" d="M22,50.3c-.34,0-.68-.14-.92-.38-.24-.24-.38-.58-.38-.92s.14-.68,.38-.92c.49-.48,1.36-.48,1.84,0,.24,.25,.38,.58,.38,.92s-.14,.68-.38,.92c-.24,.24-.57,.38-.92,.38Z"/>
          <path class="cls-6" d="M29.5,49.05c-.34,0-.67-.14-.92-.38-.24-.24-.38-.58-.38-.92s.14-.68,.38-.92c.49-.48,1.36-.48,1.84,0,.24,.24,.38,.58,.38,.92s-.14,.68-.38,.92c-.24,.24-.57,.38-.92,.38Z"/>
          <path class="cls-6" d="M31.5,45.8c-.34,0-.68-.14-.92-.38-.24-.24-.38-.58-.38-.92s.14-.68,.38-.92c.49-.48,1.35-.48,1.84,0,.25,.25,.38,.58,.38,.92s-.14,.68-.38,.92c-.24,.24-.58,.38-.92,.38Z"/>
          <path class="cls-6" d="M30.25,41.8c-.34,0-.68-.14-.92-.38-.24-.24-.38-.58-.38-.92s.14-.68,.38-.92c.49-.48,1.36-.48,1.84,0,.24,.24,.38,.58,.38,.92s-.14,.68-.38,.92c-.24,.24-.58,.38-.92,.38Z"/>
          <path class="cls-6" d="M30.25,37.8c-.34,0-.67-.14-.92-.38-.24-.24-.38-.58-.38-.92s.14-.68,.38-.92c.49-.48,1.36-.48,1.84,0,.24,.24,.38,.58,.38,.92s-.14,.68-.38,.92c-.24,.24-.58,.38-.92,.38Z"/>
          <path class="cls-6" d="M27,36.05c-.34,0-.67-.14-.92-.38-.24-.24-.38-.58-.38-.92s.14-.68,.38-.92c.49-.48,1.36-.48,1.84,0,.24,.24,.38,.58,.38,.92s-.14,.68-.38,.92c-.24,.24-.58,.38-.92,.38Z"/>
          <path class="cls-6" d="M23.5,36.05c-.34,0-.68-.14-.92-.38-.24-.24-.38-.58-.38-.92s.14-.68,.38-.92c.49-.48,1.36-.48,1.84,0,.24,.24,.38,.58,.38,.92s-.14,.68-.38,.92c-.24,.24-.57,.38-.92,.38Z"/>
          <path class="cls-6" d="M30,32.55c-.34,0-.67-.14-.92-.38-.24-.24-.38-.58-.38-.92s.14-.68,.38-.92c.49-.48,1.36-.48,1.84,0,.24,.25,.38,.58,.38,.92s-.14,.68-.38,.92c-.24,.24-.58,.38-.92,.38Z"/>
          <path class="cls-6" d="M33,35.3c-.34,0-.67-.14-.92-.38-.24-.24-.38-.58-.38-.92s.14-.67,.38-.92c.49-.48,1.36-.48,1.84,0,.24,.24,.38,.58,.38,.92s-.14,.68-.38,.92c-.24,.24-.58,.38-.92,.38Z"/>
          <path class="cls-6" d="M36,35.8c-.34,0-.67-.14-.92-.38-.24-.24-.38-.58-.38-.92s.14-.68,.38-.92c.49-.48,1.36-.48,1.84,0,.24,.24,.38,.58,.38,.92s-.14,.68-.38,.92c-.24,.24-.58,.38-.92,.38Z"/>
          <path class="cls-6" d="M33.5,39.8c-.34,0-.67-.14-.92-.38-.24-.24-.38-.58-.38-.92s.14-.67,.38-.92c.49-.48,1.36-.48,1.84,0,.24,.24,.38,.58,.38,.92s-.14,.68-.38,.92c-.24,.24-.58,.38-.92,.38Z"/>
          <path class="cls-6" d="M34.5,43.55c-.34,0-.68-.14-.92-.38-.24-.24-.38-.58-.38-.92s.14-.68,.38-.92c.49-.48,1.36-.48,1.84,0,.24,.24,.38,.58,.38,.92s-.14,.68-.38,.92c-.24,.24-.57,.38-.92,.38Z"/>
          <path class="cls-6" d="M31.5,45.8c-.34,0-.68-.14-.92-.38-.24-.24-.38-.58-.38-.92s.14-.68,.38-.92c.49-.48,1.35-.48,1.84,0,.25,.25,.38,.58,.38,.92s-.14,.68-.38,.92c-.24,.24-.58,.38-.92,.38Z"/>
          <path class="cls-6" d="M34.75,47.3c-.34,0-.67-.14-.92-.38-.24-.24-.38-.58-.38-.92s.14-.68,.38-.92c.49-.49,1.36-.48,1.84,0,.25,.25,.38,.58,.38,.92s-.14,.67-.38,.92c-.24,.24-.58,.38-.92,.38Z"/>
          <path class="cls-6" d="M37.75,51.55c-.34,0-.68-.14-.92-.38-.24-.24-.38-.58-.38-.92s.14-.68,.38-.92c.49-.49,1.36-.48,1.84,0,.24,.24,.38,.58,.38,.92s-.14,.68-.38,.92c-.24,.24-.58,.38-.92,.38Z"/>
          <path class="cls-6" d="M32.75,50.55c-.34,0-.67-.14-.92-.38-.24-.24-.38-.58-.38-.92s.14-.68,.38-.92c.49-.48,1.36-.48,1.84,0,.24,.24,.38,.58,.38,.92s-.14,.67-.38,.92c-.24,.24-.58,.38-.92,.38Z"/>
          <path class="cls-6" d="M38.5,47.55c-.34,0-.67-.14-.92-.38-.24-.24-.38-.58-.38-.92s.14-.68,.38-.92c.48-.48,1.36-.48,1.84,0,.24,.24,.38,.58,.38,.92s-.14,.68-.38,.92c-.24,.24-.57,.38-.92,.38Z"/>
          <path class="cls-6" d="M38.25,43.05c-.34,0-.68-.14-.92-.38-.24-.24-.38-.58-.38-.92s.14-.68,.38-.92c.49-.48,1.36-.48,1.84,0,.24,.24,.38,.58,.38,.92s-.14,.68-.38,.92c-.24,.24-.57,.38-.92,.38Z"/>
          <path class="cls-6" d="M37.5,39.55c-.34,0-.67-.14-.92-.38-.24-.24-.38-.58-.38-.92s.14-.68,.38-.92c.49-.48,1.36-.48,1.84,0,.25,.25,.38,.58,.38,.92s-.13,.67-.38,.92c-.24,.24-.58,.38-.92,.38Z"/>
          <path class="cls-6" d="M33,35.3c-.34,0-.67-.14-.92-.38-.24-.24-.38-.58-.38-.92s.14-.67,.38-.92c.49-.48,1.36-.48,1.84,0,.24,.24,.38,.58,.38,.92s-.14,.68-.38,.92c-.24,.24-.58,.38-.92,.38Z"/>
          <path class="cls-6" d="M36,35.8c-.34,0-.67-.14-.92-.38-.24-.24-.38-.58-.38-.92s.14-.68,.38-.92c.49-.48,1.36-.48,1.84,0,.24,.24,.38,.58,.38,.92s-.14,.68-.38,.92c-.24,.24-.58,.38-.92,.38Z"/>
          <path class="cls-6" d="M33.75,32.05c-.34,0-.67-.14-.92-.38-.24-.24-.38-.58-.38-.92s.14-.68,.38-.92c.48-.48,1.36-.48,1.84,0,.24,.24,.38,.58,.38,.92s-.14,.68-.38,.92c-.24,.24-.58,.38-.92,.38Z"/>
          <path class="cls-6" d="M33.25,28.05c-.34,0-.68-.14-.92-.38-.24-.24-.38-.58-.38-.92s.14-.68,.38-.92c.49-.48,1.36-.48,1.84,0,.24,.24,.38,.58,.38,.92s-.14,.68-.38,.92c-.24,.24-.57,.38-.92,.38Z"/>
          <path class="cls-6" d="M37,28.3c-.34,0-.67-.14-.92-.38-.24-.24-.38-.58-.38-.92s.14-.68,.38-.92c.49-.48,1.36-.48,1.84,0,.24,.24,.38,.58,.38,.92s-.14,.68-.38,.92c-.24,.24-.58,.38-.92,.38Z"/>
          <path class="cls-6" d="M37.75,32.8c-.34,0-.67-.14-.92-.38-.24-.24-.38-.58-.38-.92s.14-.68,.38-.92c.49-.49,1.36-.48,1.84,0,.24,.24,.38,.58,.38,.92s-.14,.68-.38,.92c-.24,.24-.58,.38-.92,.38Z"/>
          <path class="cls-6" d="M40,36.05c-.34,0-.68-.14-.92-.38-.24-.24-.38-.58-.38-.92s.14-.68,.38-.92c.48-.48,1.36-.48,1.84,0,.24,.24,.38,.58,.38,.92s-.14,.68-.38,.92c-.24,.24-.58,.38-.92,.38Z"/>
          <path class="cls-6" d="M43,38.55c-.34,0-.68-.14-.92-.38-.24-.24-.38-.58-.38-.92s.14-.68,.38-.92c.48-.48,1.36-.48,1.84,0,.24,.24,.38,.58,.38,.92s-.14,.68-.38,.92c-.24,.24-.58,.38-.92,.38Z"/>
          <path class="cls-6" d="M42.5,42.3c-.34,0-.68-.14-.92-.38-.24-.24-.38-.58-.38-.92s.14-.68,.38-.92c.49-.49,1.36-.48,1.84,0,.24,.24,.38,.58,.38,.92s-.14,.68-.38,.92c-.24,.24-.58,.38-.92,.38Z"/>
          <path class="cls-6" d="M41.75,46.05c-.34,0-.67-.14-.92-.38-.24-.24-.38-.58-.38-.92s.14-.68,.38-.92c.48-.48,1.36-.49,1.84,0,.24,.24,.38,.58,.38,.92s-.14,.68-.38,.92c-.24,.24-.58,.38-.92,.38Z"/>
          <path class="cls-6" d="M43.75,49.55c-.34,0-.67-.14-.92-.38-.24-.24-.38-.58-.38-.92s.14-.68,.38-.92c.48-.48,1.36-.49,1.84,0,.24,.24,.38,.58,.38,.92s-.14,.68-.38,.92c-.24,.24-.58,.38-.92,.38Z"/>
          <path class="cls-6" d="M46.75,46.55c-.34,0-.68-.14-.92-.38-.24-.24-.38-.58-.38-.92s.14-.68,.38-.92c.49-.48,1.36-.48,1.84,0,.24,.24,.38,.58,.38,.92s-.14,.68-.38,.92c-.24,.24-.58,.38-.92,.38Z"/>
          <path class="cls-6" d="M46.75,51.05c-.34,0-.67-.14-.92-.38-.24-.24-.38-.58-.38-.92s.14-.68,.38-.92c.49-.48,1.36-.48,1.84,0,.24,.24,.38,.58,.38,.92s-.14,.68-.38,.92c-.24,.24-.58,.38-.92,.38Z"/>
          <path class="cls-6" d="M46.5,41.8c-.34,0-.68-.14-.92-.38-.24-.24-.38-.58-.38-.92s.14-.68,.38-.92c.49-.48,1.36-.48,1.84,0,.24,.24,.38,.58,.38,.92s-.14,.68-.38,.92c-.24,.24-.58,.38-.92,.38Z"/>
          <path class="cls-6" d="M47.75,38.8c-.34,0-.67-.14-.92-.38-.24-.24-.38-.58-.38-.92s.14-.68,.38-.92c.48-.48,1.35-.48,1.84,0,.24,.24,.38,.58,.38,.92s-.14,.68-.38,.92c-.24,.24-.57,.38-.92,.38Z"/>
          <path class="cls-6" d="M44.5,34.8c-.34,0-.68-.14-.92-.38-.24-.24-.38-.58-.38-.92s.14-.68,.38-.92c.49-.48,1.36-.48,1.84,0,.24,.24,.38,.58,.38,.92s-.14,.68-.38,.92c-.25,.24-.57,.38-.92,.38Z"/>
          <path class="cls-6" d="M42.75,32.3c-.34,0-.67-.14-.92-.38-.24-.24-.38-.58-.38-.92s.14-.67,.38-.92c.49-.49,1.36-.48,1.84,0,.24,.25,.38,.58,.38,.92s-.14,.68-.38,.92c-.24,.24-.58,.38-.92,.38Z"/>
          <path class="cls-6" d="M40.75,30.05c-.34,0-.67-.14-.92-.38-.24-.24-.38-.58-.38-.92s.14-.68,.38-.92c.49-.49,1.36-.48,1.84,0,.24,.24,.38,.58,.38,.92s-.14,.68-.38,.92c-.24,.24-.57,.38-.92,.38Z"/>
          <path class="cls-6" d="M44,28.05c-.34,0-.68-.14-.92-.38-.24-.24-.38-.58-.38-.92s.14-.68,.38-.92c.49-.48,1.36-.48,1.84,0,.24,.24,.38,.58,.38,.92s-.14,.68-.38,.92c-.24,.24-.58,.38-.92,.38Z"/>
          <path class="cls-6" d="M43,24.05c-.34,0-.67-.14-.92-.38-.24-.24-.38-.58-.38-.92s.14-.68,.38-.92c.48-.48,1.36-.48,1.84,0,.24,.24,.38,.58,.38,.92s-.14,.68-.38,.92c-.24,.24-.58,.38-.92,.38Z"/>
          <path class="cls-6" d="M47.75,26.8c-.34,0-.67-.14-.92-.38-.24-.24-.38-.58-.38-.92s.14-.68,.38-.92c.49-.48,1.35-.48,1.84,0,.24,.24,.38,.58,.38,.92s-.14,.68-.38,.92c-.24,.24-.58,.38-.92,.38Z"/>
          <path class="cls-6" d="M46.5,31.05c-.34,0-.67-.14-.92-.38-.24-.24-.38-.58-.38-.92s.14-.68,.38-.92c.49-.48,1.36-.48,1.84,0,.24,.24,.38,.58,.38,.92s-.14,.68-.38,.92c-.24,.24-.58,.38-.92,.38Z"/>
          <path class="cls-6" d="M48.5,34.3c-.34,0-.67-.14-.92-.38-.24-.24-.38-.58-.38-.92s.14-.68,.38-.92c.48-.48,1.36-.48,1.84,0,.24,.24,.38,.58,.38,.92s-.14,.68-.38,.92c-.24,.24-.58,.38-.92,.38Z"/>
          <path class="cls-6" d="M51.75,36.8c-.34,0-.67-.14-.92-.38-.24-.25-.38-.58-.38-.92s.14-.68,.38-.92c.48-.48,1.35-.48,1.84,0,.24,.24,.38,.58,.38,.92s-.14,.68-.38,.92c-.24,.24-.58,.38-.92,.38Z"/>
          <path class="cls-6" d="M51.5,40.8c-.34,0-.67-.14-.92-.38-.24-.25-.38-.58-.38-.92s.14-.67,.38-.92c.49-.48,1.36-.48,1.84,0,.24,.24,.38,.58,.38,.92s-.14,.68-.38,.92c-.24,.24-.58,.38-.92,.38Z"/>
          <path class="cls-6" d="M50.5,44.8c-.34,0-.67-.14-.92-.38-.24-.24-.38-.58-.38-.92s.14-.67,.38-.92c.49-.49,1.36-.48,1.84,0,.24,.25,.38,.58,.38,.92s-.14,.68-.38,.92c-.24,.24-.58,.38-.92,.38Z"/>
          <path class="cls-6" d="M54.25,44.05c-.34,0-.68-.14-.92-.38-.24-.24-.38-.58-.38-.92s.14-.68,.38-.92c.49-.48,1.36-.48,1.84,0,.24,.24,.38,.58,.38,.92s-.14,.68-.38,.92c-.24,.24-.58,.38-.92,.38Z"/>
          <path class="cls-6" d="M54,48.55c-.34,0-.68-.14-.92-.38-.24-.24-.38-.58-.38-.92s.14-.68,.38-.92c.49-.48,1.36-.48,1.84,0,.24,.24,.38,.58,.38,.92s-.14,.68-.38,.92c-.24,.24-.58,.38-.92,.38Z"/>
          <path class="cls-6" d="M56.75,51.55c-.34,0-.67-.14-.92-.38-.24-.24-.38-.58-.38-.92s.14-.68,.38-.92c.49-.48,1.35-.49,1.84,0,.24,.24,.38,.58,.38,.92s-.14,.68-.38,.92c-.24,.24-.57,.38-.92,.38Z"/>
          <path class="cls-6" d="M57.5,46.8c-.34,0-.67-.14-.92-.38-.24-.24-.38-.58-.38-.92s.14-.68,.38-.92c.49-.48,1.36-.48,1.84,0,.24,.24,.38,.58,.38,.92s-.14,.68-.38,.92c-.24,.24-.58,.38-.92,.38Z"/>
          <path class="cls-6" d="M57.5,43.05c-.34,0-.68-.14-.92-.38-.24-.24-.38-.58-.38-.92s.14-.68,.38-.92c.49-.48,1.36-.48,1.84,0,.24,.24,.38,.58,.38,.92s-.14,.68-.38,.92c-.24,.24-.57,.38-.92,.38Z"/>
          <path class="cls-6" d="M56.5,39.05c-.34,0-.67-.14-.92-.38-.24-.24-.38-.58-.38-.92s.14-.68,.38-.92c.48-.48,1.36-.48,1.84,0,.24,.24,.38,.58,.38,.92s-.14,.68-.38,.92c-.24,.24-.58,.38-.92,.38Z"/>
          <path class="cls-6" d="M27.25,44.05c-.34,0-.67-.14-.92-.38-.24-.24-.38-.58-.38-.92s.14-.68,.38-.92c.49-.48,1.36-.49,1.84,0,.24,.24,.38,.58,.38,.92s-.14,.68-.38,.92c-.24,.24-.58,.38-.92,.38Z"/>
          <path class="cls-6" d="M70.25,33.3c-.34,0-.68-.14-.92-.38-.24-.24-.38-.58-.38-.92s.14-.68,.38-.92c.49-.49,1.36-.48,1.84,0,.24,.24,.38,.58,.38,.92s-.14,.68-.38,.92c-.24,.24-.58,.38-.92,.38Z"/>
          <path class="cls-6" d="M71.25,29.05c-.34,0-.67-.14-.92-.38-.24-.24-.38-.58-.38-.92s.14-.68,.38-.92c.49-.48,1.36-.48,1.84,0,.24,.24,.38,.58,.38,.92s-.14,.68-.38,.92c-.24,.24-.58,.38-.92,.38Z"/>
          <path class="cls-6" d="M68,27.3c-.34,0-.67-.14-.92-.38-.24-.24-.38-.58-.38-.92s.14-.67,.38-.92c.49-.49,1.36-.48,1.84,0,.24,.24,.38,.58,.38,.92s-.14,.68-.38,.92c-.24,.24-.58,.38-.92,.38Z"/>
          <path class="cls-6" d="M68.25,36.55c-.34,0-.68-.14-.92-.38-.24-.24-.38-.58-.38-.92s.14-.68,.38-.92c.49-.48,1.36-.48,1.84,0,.24,.24,.38,.58,.38,.92s-.14,.68-.38,.92c-.24,.24-.57,.38-.92,.38Z"/>
          <path class="cls-6" d="M68,40.3c-.34,0-.67-.14-.92-.38-.24-.24-.38-.58-.38-.92s.14-.68,.38-.92c.49-.49,1.36-.48,1.84,0,.24,.24,.38,.58,.38,.92s-.14,.68-.38,.92c-.24,.24-.58,.38-.92,.38Z"/>
          <path class="cls-6" d="M71.5,39.05c-.34,0-.68-.14-.92-.38-.24-.24-.38-.58-.38-.92s.14-.68,.38-.92c.49-.48,1.36-.48,1.84,0,.24,.24,.38,.58,.38,.92s-.14,.68-.38,.92c-.24,.24-.58,.38-.92,.38Z"/>
          <path class="cls-6" d="M70.75,43.05c-.34,0-.67-.14-.92-.38-.24-.24-.38-.58-.38-.92s.14-.67,.38-.92c.48-.48,1.36-.48,1.84,0,.24,.24,.38,.58,.38,.92s-.14,.68-.38,.92c-.24,.24-.58,.38-.92,.38Z"/>
          <path class="cls-6" d="M70,50.55c-.34,0-.67-.14-.92-.38-.24-.24-.38-.58-.38-.92s.14-.68,.38-.92c.48-.48,1.36-.49,1.84,0,.24,.24,.38,.58,.38,.92s-.14,.68-.38,.92c-.24,.24-.58,.38-.92,.38Z"/>
          <path class="cls-6" d="M69,47.05c-.34,0-.67-.14-.92-.38-.24-.24-.38-.58-.38-.92s.14-.68,.38-.92c.49-.48,1.36-.48,1.84,0,.24,.24,.38,.58,.38,.92s-.14,.68-.38,.92c-.24,.24-.58,.38-.92,.38Z"/>
          <path class="cls-6" d="M66.5,31.05c-.34,0-.68-.14-.92-.38-.24-.24-.38-.58-.38-.92s.14-.68,.38-.92c.48-.48,1.36-.48,1.84,0,.24,.24,.38,.58,.38,.92s-.14,.68-.38,.92c-.24,.24-.58,.38-.92,.38Z"/>
          <path class="cls-6" d="M63,31.3c-.34,0-.67-.14-.92-.38-.24-.24-.38-.58-.38-.92s.14-.68,.38-.92c.49-.48,1.35-.48,1.84,0,.24,.24,.38,.58,.38,.92s-.14,.68-.38,.92c-.24,.24-.57,.38-.92,.38Z"/>
          <path class="cls-6" d="M64,26.55c-.34,0-.67-.14-.92-.38-.24-.24-.38-.58-.38-.92s.14-.68,.38-.92c.49-.48,1.35-.48,1.84,0,.24,.24,.38,.58,.38,.92s-.14,.68-.38,.92c-.24,.24-.58,.38-.92,.38Z"/>
          <path class="cls-6" d="M60.5,28.05c-.34,0-.67-.14-.92-.38-.24-.24-.38-.58-.38-.92s.14-.68,.38-.92c.49-.48,1.35-.48,1.84,0,.24,.24,.38,.58,.38,.92s-.14,.68-.38,.92c-.24,.24-.57,.38-.92,.38Z"/>
          <path class="cls-6" d="M56.75,27.05c-.34,0-.67-.14-.92-.38-.24-.24-.38-.58-.38-.92s.14-.68,.38-.92c.49-.48,1.35-.48,1.84,0,.24,.24,.38,.58,.38,.92s-.14,.68-.38,.92c-.24,.24-.58,.38-.92,.38Z"/>
          <path class="cls-6" d="M53.25,28.8c-.34,0-.67-.14-.92-.38-.24-.24-.38-.58-.38-.92s.14-.68,.38-.92c.48-.48,1.35-.49,1.84,0,.24,.24,.38,.58,.38,.92s-.14,.68-.38,.92c-.24,.24-.57,.38-.92,.38Z"/>
          <path class="cls-6" d="M50.25,29.8c-.34,0-.67-.14-.92-.38-.24-.24-.38-.58-.38-.92s.14-.68,.38-.92c.49-.48,1.36-.48,1.84,0,.24,.24,.38,.58,.38,.92s-.14,.68-.38,.92c-.24,.24-.58,.38-.92,.38Z"/>
          <path class="cls-6" d="M52.5,33.55c-.34,0-.67-.14-.92-.38-.24-.24-.38-.58-.38-.92s.14-.68,.38-.92c.49-.48,1.35-.48,1.84,0,.24,.24,.38,.58,.38,.92s-.14,.68-.38,.92c-.24,.24-.58,.38-.92,.38Z"/>
          <path class="cls-6" d="M56.75,31.05c-.34,0-.67-.14-.92-.38-.24-.24-.38-.58-.38-.92s.14-.68,.38-.92c.49-.48,1.35-.48,1.84,0,.24,.24,.38,.58,.38,.92s-.14,.68-.38,.92c-.24,.24-.58,.38-.92,.38Z"/>
          <path class="cls-6" d="M59.75,34.05c-.34,0-.68-.14-.92-.38-.24-.24-.38-.58-.38-.92s.14-.67,.38-.92c.49-.48,1.36-.48,1.84,0,.24,.24,.38,.58,.38,.92s-.14,.68-.38,.92c-.24,.24-.58,.38-.92,.38Z"/>
          <path class="cls-6" d="M56,35.55c-.34,0-.68-.14-.92-.38-.24-.24-.38-.58-.38-.92s.14-.68,.38-.92c.48-.48,1.35-.49,1.84,0,.24,.24,.38,.58,.38,.92s-.14,.68-.38,.92c-.24,.24-.57,.38-.92,.38Z"/>
          <path class="cls-6" d="M60,38.3c-.34,0-.67-.14-.92-.38-.24-.24-.38-.58-.38-.92s.14-.68,.38-.92c.49-.48,1.35-.48,1.84,0,.24,.24,.38,.58,.38,.92s-.14,.68-.38,.92c-.24,.24-.58,.38-.92,.38Z"/>
          <path class="cls-6" d="M64.5,34.8c-.34,0-.67-.14-.91-.38-.25-.24-.39-.58-.39-.92s.14-.68,.38-.92c.48-.48,1.35-.49,1.84,0,.24,.24,.38,.58,.38,.92s-.14,.68-.38,.92c-.24,.24-.58,.38-.92,.38Z"/>
          <path class="cls-6" d="M64.25,38.05c-.34,0-.67-.14-.92-.38-.24-.24-.38-.58-.38-.92s.14-.68,.38-.92c.48-.48,1.35-.48,1.84,0,.24,.24,.38,.58,.38,.92s-.14,.68-.38,.92c-.24,.24-.58,.38-.92,.38Z"/>
          <path class="cls-6" d="M61.5,42.3c-.34,0-.67-.14-.92-.38-.24-.24-.38-.58-.38-.92s.14-.68,.38-.92c.49-.48,1.35-.48,1.84,0,.24,.24,.38,.58,.38,.92s-.14,.68-.38,.92c-.24,.24-.57,.38-.92,.38Z"/>
          <path class="cls-6" d="M62.75,46.3c-.34,0-.67-.14-.92-.38-.24-.24-.38-.58-.38-.92s.14-.68,.38-.92c.49-.48,1.35-.48,1.84,0,.24,.24,.38,.58,.38,.92s-.14,.68-.38,.92c-.24,.24-.57,.38-.92,.38Z"/>
          <path class="cls-6" d="M57.5,46.8c-.34,0-.67-.14-.92-.38-.24-.24-.38-.58-.38-.92s.14-.68,.38-.92c.49-.48,1.36-.48,1.84,0,.24,.24,.38,.58,.38,.92s-.14,.68-.38,.92c-.24,.24-.58,.38-.92,.38Z"/>
          <path class="cls-6" d="M60.25,49.05c-.34,0-.68-.14-.92-.38-.24-.25-.38-.58-.38-.92s.14-.68,.38-.92c.49-.48,1.35-.48,1.84,0,.24,.24,.38,.58,.38,.92s-.13,.68-.38,.92c-.24,.24-.58,.38-.92,.38Z"/>
          <path class="cls-6" d="M65.75,49.3c-.34,0-.67-.14-.92-.38-.24-.24-.38-.58-.38-.92s.14-.68,.38-.92c.49-.49,1.36-.48,1.84,0,.24,.24,.38,.58,.38,.92s-.14,.68-.38,.92c-.24,.24-.57,.38-.92,.38Z"/>
          <path class="cls-6" d="M65.5,43.55c-.34,0-.67-.14-.92-.38-.24-.24-.38-.58-.38-.92s.14-.68,.38-.92c.49-.48,1.37-.48,1.84,0,.24,.24,.38,.58,.38,.92s-.14,.68-.38,.92c-.24,.24-.58,.38-.92,.38Z"/>
          <path class="cls-6" d="M50,49.05c-.34,0-.67-.14-.92-.38-.24-.24-.38-.58-.38-.92s.14-.67,.38-.92c.49-.48,1.36-.48,1.84,0,.24,.25,.38,.58,.38,.92s-.14,.67-.38,.92c-.24,.24-.58,.38-.92,.38Z"/>
          <path class="cls-6" d="M61.75,52.8c-.34,0-.67-.14-.92-.38-.24-.24-.38-.58-.38-.92s.14-.67,.38-.92c.49-.48,1.36-.48,1.84,0,.24,.24,.38,.58,.38,.92s-.14,.68-.38,.92c-.24,.24-.58,.38-.92,.38Z"/>
          <path class="cls-6" d="M6.75,58.8c-.34,0-.67-.14-.92-.38-.24-.24-.38-.58-.38-.92s.14-.68,.38-.92c.48-.48,1.36-.48,1.84,0,.24,.25,.38,.58,.38,.92s-.14,.68-.38,.92c-.24,.24-.58,.38-.92,.38Z"/>
          <path class="cls-6" d="M7.75,54.3c-.34,0-.67-.14-.92-.38-.24-.24-.38-.58-.38-.92s.14-.68,.38-.92c.49-.48,1.35-.48,1.84,0,.24,.24,.38,.58,.38,.92s-.14,.68-.38,.92c-.24,.24-.58,.38-.92,.38Z"/>
          <path class="cls-6" d="M11,53.05c-.34,0-.67-.14-.92-.38-.24-.24-.38-.58-.38-.92s.14-.68,.38-.92c.49-.48,1.36-.48,1.84,0,.24,.24,.38,.58,.38,.92s-.14,.68-.38,.92c-.24,.24-.58,.38-.92,.38Z"/>
          <path class="cls-6" d="M10,57.05c-.34,0-.67-.14-.92-.38-.24-.24-.38-.58-.38-.92s.14-.68,.38-.92c.49-.48,1.36-.48,1.84,0,.24,.24,.38,.58,.38,.92s-.14,.68-.38,.92c-.24,.24-.58,.38-.92,.38Z"/>
          <path class="cls-6" d="M13.5,59.05c-.34,0-.67-.14-.92-.38-.24-.24-.38-.58-.38-.92s.14-.68,.38-.92c.49-.48,1.36-.48,1.84,0,.24,.24,.38,.58,.38,.92s-.14,.68-.38,.92c-.24,.24-.58,.38-.92,.38Z"/>
          <path class="cls-6" d="M13.5,63.05c-.34,0-.67-.14-.92-.38-.24-.24-.38-.58-.38-.92s.14-.68,.38-.92c.49-.48,1.36-.48,1.84,0,.24,.24,.38,.58,.38,.92s-.14,.68-.38,.92c-.24,.24-.58,.38-.92,.38Z"/>
          <path class="cls-6" d="M9.5,61.3c-.34,0-.67-.14-.92-.38-.24-.24-.38-.58-.38-.92s.14-.68,.38-.92c.48-.48,1.36-.48,1.84,0,.25,.24,.38,.58,.38,.92s-.13,.68-.38,.92c-.24,.24-.58,.38-.92,.38Z"/>
          <path class="cls-6" d="M17,60.05c-.34,0-.68-.14-.92-.38-.24-.24-.38-.58-.38-.92s.14-.68,.38-.92c.48-.48,1.36-.48,1.84,0,.24,.24,.38,.58,.38,.92s-.14,.68-.38,.92c-.24,.24-.57,.38-.92,.38Z"/>
          <path class="cls-6" d="M17.25,63.05c-.34,0-.68-.14-.92-.38-.24-.24-.38-.58-.38-.92s.14-.67,.38-.92c.49-.48,1.36-.48,1.84,0,.24,.25,.38,.58,.38,.92s-.14,.68-.38,.92c-.24,.24-.57,.38-.92,.38Z"/>
          <path class="cls-6" d="M19,56.8c-.34,0-.67-.14-.92-.38-.24-.24-.38-.58-.38-.92s.14-.68,.38-.92c.48-.48,1.36-.49,1.84,0,.24,.24,.38,.58,.38,.92s-.14,.68-.38,.92c-.24,.24-.58,.38-.92,.38Z"/>
          <path class="cls-6" d="M22,54.55c-.34,0-.67-.14-.92-.38-.24-.24-.38-.58-.38-.92s.14-.68,.38-.92c.49-.48,1.36-.48,1.84,0,.24,.24,.38,.58,.38,.92s-.14,.68-.38,.92c-.24,.24-.58,.38-.92,.38Z"/>
          <path class="cls-6" d="M19,56.8c-.34,0-.67-.14-.92-.38-.24-.24-.38-.58-.38-.92s.14-.68,.38-.92c.48-.48,1.36-.49,1.84,0,.24,.24,.38,.58,.38,.92s-.14,.68-.38,.92c-.24,.24-.58,.38-.92,.38Z"/>
          <path class="cls-6" d="M22.25,58.3c-.34,0-.67-.14-.92-.38-.24-.24-.38-.58-.38-.92s.14-.68,.38-.92c.49-.48,1.36-.48,1.84,0,.24,.24,.38,.58,.38,.92s-.14,.68-.38,.92c-.24,.24-.58,.38-.92,.38Z"/>
          <path class="cls-6" d="M25.25,62.55c-.34,0-.67-.14-.92-.38-.24-.24-.38-.58-.38-.92s.14-.68,.38-.92c.49-.48,1.35-.48,1.84,0,.25,.25,.38,.58,.38,.92s-.14,.68-.38,.92c-.24,.24-.58,.38-.92,.38Z"/>
          <path class="cls-6" d="M20.25,61.55c-.34,0-.67-.14-.92-.38-.24-.24-.38-.58-.38-.92s.14-.68,.38-.92c.49-.48,1.36-.48,1.84,0,.24,.24,.38,.58,.38,.92s-.14,.68-.38,.92c-.24,.24-.57,.38-.92,.38Z"/>
          <path class="cls-6" d="M26,59.55c-.34,0-.68-.14-.92-.38-.24-.24-.38-.58-.38-.92s.14-.68,.38-.92c.49-.48,1.36-.48,1.84,0,.24,.24,.38,.58,.38,.92s-.14,.68-.38,.92c-.24,.24-.57,.38-.92,.38Z"/>
          <path class="cls-6" d="M25.75,55.05c-.34,0-.67-.14-.92-.38-.24-.24-.38-.58-.38-.92s.14-.68,.38-.92c.49-.48,1.36-.48,1.84,0,.24,.24,.38,.58,.38,.92s-.14,.68-.38,.92c-.24,.24-.58,.38-.92,.38Z"/>
          <path class="cls-6" d="M30,53.3c-.34,0-.67-.14-.92-.38-.24-.24-.38-.58-.38-.92s.14-.68,.38-.92c.48-.48,1.36-.48,1.84,0,.24,.25,.38,.58,.38,.92s-.14,.67-.38,.92c-.24,.24-.57,.38-.92,.38Z"/>
          <path class="cls-6" d="M29.25,56.3c-.34,0-.68-.14-.92-.38-.24-.24-.38-.58-.38-.92s.14-.68,.38-.92c.49-.48,1.36-.48,1.84,0,.24,.24,.38,.58,.38,.92s-.14,.68-.38,.92c-.24,.24-.57,.38-.92,.38Z"/>
          <path class="cls-6" d="M30.5,60.05c-.34,0-.68-.14-.92-.38-.24-.24-.38-.58-.38-.92s.14-.67,.38-.92c.49-.49,1.36-.48,1.84,0,.24,.25,.38,.58,.38,.92s-.14,.68-.38,.92c-.24,.24-.58,.38-.92,.38Z"/>
          <path class="cls-6" d="M34.25,57.55c-.34,0-.67-.14-.92-.38-.24-.24-.38-.58-.38-.92s.14-.68,.38-.92c.49-.49,1.36-.48,1.84,0,.24,.24,.38,.58,.38,.92s-.14,.68-.38,.92c-.24,.24-.58,.38-.92,.38Z"/>
          <path class="cls-6" d="M34,63.05c-.34,0-.68-.14-.92-.38-.24-.24-.38-.58-.38-.92s.14-.68,.38-.92c.48-.48,1.35-.48,1.84,0,.24,.24,.38,.58,.38,.92s-.14,.68-.38,.92c-.24,.24-.58,.38-.92,.38Z"/>
          <path class="cls-6" d="M34.5,54.05c-.34,0-.67-.14-.92-.38-.24-.24-.38-.58-.38-.92s.14-.68,.38-.92c.49-.48,1.36-.48,1.84,0,.24,.24,.38,.58,.38,.92s-.14,.68-.38,.92c-.24,.24-.58,.38-.92,.38Z"/>
          <path class="cls-6" d="M38,55.8c-.34,0-.67-.14-.92-.38-.24-.24-.38-.58-.38-.92s.14-.68,.38-.92c.48-.48,1.36-.49,1.84,0,.24,.24,.38,.58,.38,.92s-.14,.68-.38,.92c-.24,.24-.58,.38-.92,.38Z"/>
          <path class="cls-6" d="M14.75,55.05c-.34,0-.68-.14-.92-.38-.24-.24-.38-.58-.38-.92s.14-.67,.38-.92c.49-.48,1.36-.48,1.84,0,.24,.25,.38,.58,.38,.92s-.14,.68-.38,.92c-.24,.24-.58,.38-.92,.38Z"/>
          <path class="cls-6" d="M37,59.8c-.34,0-.67-.14-.92-.38-.24-.24-.38-.58-.38-.92s.14-.68,.38-.92c.49-.49,1.36-.48,1.84,0,.25,.24,.38,.58,.38,.92s-.14,.68-.38,.92c-.24,.24-.58,.38-.92,.38Z"/>
          <path class="cls-6" d="M3.5,65.3c-.34,0-.68-.14-.92-.38-.24-.24-.38-.58-.38-.92s.14-.68,.38-.92c.49-.48,1.36-.48,1.84,0,.24,.24,.38,.58,.38,.92s-.14,.68-.38,.92c-.24,.24-.58,.38-.92,.38Z"/>
          <path class="cls-6" d="M2.5,69.3c-.34,0-.68-.14-.92-.38-.24-.24-.38-.58-.38-.92s.14-.68,.38-.92c.49-.48,1.35-.48,1.84,0,.24,.24,.38,.58,.38,.92s-.13,.68-.38,.92c-.24,.24-.58,.38-.92,.38Z"/>
          <path class="cls-6" d="M11.5,69.05c-.34,0-.67-.14-.92-.38-.24-.24-.38-.58-.38-.92s.14-.67,.38-.92c.48-.48,1.36-.48,1.84,0,.24,.25,.38,.58,.38,.92s-.14,.68-.38,.92c-.24,.24-.58,.38-.92,.38Z"/>
          <path class="cls-6" d="M10.25,65.05c-.34,0-.67-.14-.92-.38-.24-.24-.38-.58-.38-.92s.14-.68,.38-.92c.49-.48,1.36-.48,1.84,0,.24,.24,.38,.58,.38,.92s-.14,.68-.38,.92c-.24,.24-.58,.38-.92,.38Z"/>
          <path class="cls-6" d="M14.5,66.8c-.34,0-.68-.14-.92-.38-.24-.24-.38-.58-.38-.92s.14-.68,.38-.92c.49-.48,1.36-.48,1.84,0,.24,.25,.38,.58,.38,.92s-.14,.68-.38,.92c-.24,.24-.57,.38-.92,.38Z"/>
          <path class="cls-6" d="M11.5,69.05c-.34,0-.67-.14-.92-.38-.24-.24-.38-.58-.38-.92s.14-.67,.38-.92c.48-.48,1.36-.48,1.84,0,.24,.25,.38,.58,.38,.92s-.14,.68-.38,.92c-.24,.24-.58,.38-.92,.38Z"/>
          <path class="cls-6" d="M18.25,66.3c-.34,0-.67-.14-.92-.38-.24-.24-.38-.58-.38-.92s.14-.67,.38-.92c.49-.49,1.36-.48,1.84,0,.24,.24,.38,.58,.38,.92s-.14,.68-.38,.92c-.24,.24-.58,.38-.92,.38Z"/>
          <path class="cls-6" d="M22.5,65.55c-.34,0-.67-.14-.92-.38-.24-.24-.38-.58-.38-.92s.14-.67,.38-.92c.49-.49,1.36-.48,1.84,0,.24,.25,.38,.58,.38,.92s-.14,.68-.38,.92c-.24,.24-.58,.38-.92,.38Z"/>
          <path class="cls-6" d="M21.75,68.55c-.34,0-.67-.14-.92-.38-.24-.24-.38-.58-.38-.92s.14-.68,.38-.92c.49-.48,1.35-.49,1.84,0,.24,.25,.38,.58,.38,.92s-.14,.68-.38,.92c-.24,.24-.57,.38-.92,.38Z"/>
          <path class="cls-6" d="M26.75,69.8c-.34,0-.67-.14-.92-.38-.24-.24-.38-.58-.38-.92s.14-.68,.38-.92c.49-.48,1.36-.48,1.84,0,.24,.24,.38,.58,.38,.92s-.14,.68-.38,.92c-.24,.24-.58,.38-.92,.38Z"/>
          <path class="cls-6" d="M27,66.3c-.34,0-.67-.14-.92-.38-.24-.24-.38-.58-.38-.92s.14-.68,.38-.92c.49-.48,1.35-.49,1.84,0,.24,.24,.38,.58,.38,.92s-.14,.68-.38,.92c-.24,.24-.58,.38-.92,.38Z"/>
          <path class="cls-6" d="M31,68.8c-.34,0-.67-.14-.92-.38-.24-.24-.38-.58-.38-.92s.14-.68,.38-.92c.48-.48,1.36-.49,1.84,0,.24,.24,.38,.58,.38,.92s-.14,.68-.38,.92c-.24,.24-.58,.38-.92,.38Z"/>
          <path class="cls-6" d="M34.25,67.3c-.34,0-.67-.14-.92-.38-.24-.24-.38-.58-.38-.92s.14-.68,.38-.92c.49-.49,1.36-.48,1.84,0,.24,.24,.38,.58,.38,.92s-.14,.68-.38,.92c-.24,.24-.58,.38-.92,.38Z"/>
          <path class="cls-6" d="M7.25,67.3c-.34,0-.67-.14-.92-.38-.24-.24-.38-.58-.38-.92s.14-.68,.38-.92c.48-.48,1.36-.49,1.84,0,.24,.24,.38,.58,.38,.92s-.14,.68-.38,.92c-.24,.24-.58,.38-.92,.38Z"/>
          <path class="cls-6" d="M41.5,52.3c-.34,0-.67-.14-.92-.38-.24-.24-.38-.58-.38-.92s.14-.68,.38-.92c.49-.48,1.36-.48,1.84,0,.24,.24,.38,.58,.38,.92s-.14,.68-.38,.92c-.24,.24-.58,.38-.92,.38Z"/>
          <path class="cls-6" d="M44,58.55c-.34,0-.67-.14-.92-.38-.24-.24-.38-.58-.38-.92s.14-.68,.38-.92c.49-.48,1.36-.48,1.84,0,.24,.24,.38,.58,.38,.92s-.14,.68-.38,.92c-.24,.24-.58,.38-.92,.38Z"/>
          <path class="cls-6" d="M44.5,54.55c-.34,0-.68-.14-.92-.38-.24-.24-.38-.58-.38-.92s.14-.68,.38-.92c.49-.48,1.36-.48,1.84,0,.24,.24,.38,.58,.38,.92s-.14,.68-.38,.92c-.24,.24-.58,.38-.92,.38Z"/>
          <path class="cls-6" d="M49.25,53.55c-.34,0-.68-.14-.92-.38-.24-.24-.38-.58-.38-.92s.14-.67,.38-.92c.49-.48,1.36-.48,1.84,0,.24,.24,.38,.58,.38,.92s-.14,.68-.38,.92c-.24,.24-.57,.38-.92,.38Z"/>
          <path class="cls-6" d="M50,58.3c-.34,0-.68-.14-.92-.38-.24-.24-.38-.58-.38-.92s.14-.68,.38-.92c.49-.48,1.36-.48,1.84,0,.24,.24,.38,.58,.38,.92s-.14,.68-.38,.92c-.24,.24-.58,.38-.92,.38Z"/>
          <path class="cls-6" d="M47,61.05c-.34,0-.67-.14-.92-.38-.24-.24-.38-.58-.38-.92s.14-.68,.38-.92c.49-.48,1.36-.48,1.84,0,.24,.24,.38,.58,.38,.92s-.14,.68-.38,.92c-.24,.24-.58,.38-.92,.38Z"/>
          <path class="cls-6" d="M43.75,62.8c-.34,0-.67-.14-.92-.38-.24-.24-.38-.58-.38-.92s.14-.68,.38-.92c.48-.48,1.36-.49,1.84,0,.24,.24,.38,.58,.38,.92s-.14,.68-.38,.92c-.24,.24-.58,.38-.92,.38Z"/>
          <path class="cls-6" d="M44,58.55c-.34,0-.67-.14-.92-.38-.24-.24-.38-.58-.38-.92s.14-.68,.38-.92c.49-.48,1.36-.48,1.84,0,.24,.24,.38,.58,.38,.92s-.14,.68-.38,.92c-.24,.24-.58,.38-.92,.38Z"/>
          <path class="cls-6" d="M41.75,66.05c-.34,0-.67-.14-.92-.38-.24-.24-.38-.58-.38-.92s.14-.68,.38-.92c.48-.48,1.36-.48,1.84,0,.24,.24,.38,.58,.38,.92s-.14,.68-.38,.92c-.24,.24-.58,.38-.92,.38Z"/>
          <path class="cls-6" d="M46.5,65.8c-.34,0-.67-.14-.92-.38-.24-.24-.38-.58-.38-.92s.14-.68,.38-.92c.49-.48,1.36-.48,1.84,0,.24,.24,.38,.58,.38,.92s-.14,.68-.38,.92c-.24,.24-.58,.38-.92,.38Z"/>
          <path class="cls-6" d="M50,67.05c-.34,0-.67-.14-.92-.38-.24-.24-.38-.58-.38-.92s.14-.68,.38-.92c.49-.49,1.36-.48,1.84,0,.24,.25,.38,.58,.38,.92s-.14,.67-.38,.92c-.24,.24-.58,.38-.92,.38Z"/>
          <path class="cls-6" d="M50.25,62.55c-.34,0-.67-.14-.92-.38-.24-.24-.38-.58-.38-.92s.14-.68,.38-.92c.49-.48,1.36-.48,1.84,0,.24,.24,.38,.58,.38,.92s-.14,.68-.38,.92c-.24,.24-.58,.38-.92,.38Z"/>
          <path class="cls-6" d="M3.25,61.05c-.34,0-.68-.14-.92-.38-.24-.24-.38-.58-.38-.92s.14-.68,.38-.92c.49-.49,1.36-.48,1.84,0,.24,.25,.38,.58,.38,.92s-.14,.68-.38,.92c-.24,.24-.58,.38-.92,.38Z"/>
          <path class="cls-6" d="M3.75,56.3c-.34,0-.68-.14-.92-.38-.24-.24-.38-.58-.38-.92s.14-.68,.38-.92c.49-.48,1.36-.48,1.84,0,.24,.24,.38,.58,.38,.92s-.14,.68-.38,.92c-.24,.24-.58,.38-.92,.38Z"/>
          <path class="cls-6" d="M70,69.05c-.34,0-.67-.14-.92-.38-.24-.24-.38-.58-.38-.92s.14-.68,.38-.92c.48-.48,1.36-.48,1.84,0,.24,.24,.38,.58,.38,.92s-.14,.68-.38,.92c-.24,.24-.58,.38-.92,.38Z"/>
          <path class="cls-6" d="M66.75,67.55c-.34,0-.68-.14-.92-.38-.24-.24-.38-.58-.38-.92s.14-.68,.38-.92c.49-.49,1.36-.48,1.84,0,.24,.24,.38,.58,.38,.92s-.14,.68-.38,.92c-.24,.24-.57,.38-.92,.38Z"/>
          <path class="cls-6" d="M72.75,66.55c-.34,0-.67-.14-.92-.38-.24-.24-.38-.58-.38-.92s.14-.68,.38-.92c.48-.48,1.36-.48,1.84,0,.24,.24,.38,.58,.38,.92s-.14,.68-.38,.92c-.24,.24-.58,.38-.92,.38Z"/>
          <path class="cls-6" d="M69.5,53.8c-.34,0-.67-.14-.92-.38-.24-.24-.38-.58-.38-.92s.14-.68,.38-.92c.49-.48,1.36-.48,1.84,0,.24,.24,.38,.58,.38,.92s-.14,.68-.38,.92c-.24,.24-.58,.38-.92,.38Z"/>
          <path class="cls-6" d="M69.25,59.05c-.34,0-.68-.14-.92-.38-.24-.24-.38-.58-.38-.92s.14-.68,.38-.92c.49-.48,1.37-.48,1.84,0,.24,.24,.38,.58,.38,.92s-.14,.68-.38,.92c-.24,.24-.58,.38-.92,.38Z"/>
          <path class="cls-6" d="M69.5,53.8c-.34,0-.67-.14-.92-.38-.24-.24-.38-.58-.38-.92s.14-.68,.38-.92c.49-.48,1.36-.48,1.84,0,.24,.24,.38,.58,.38,.92s-.14,.68-.38,.92c-.24,.24-.58,.38-.92,.38Z"/>
          <path class="cls-6" d="M71,62.8c-.34,0-.68-.14-.92-.38-.24-.24-.38-.58-.38-.92s.14-.68,.38-.92c.48-.48,1.35-.48,1.84,0,.24,.24,.38,.58,.38,.92s-.14,.68-.38,.92c-.24,.24-.58,.38-.92,.38Z"/>
          <path class="cls-6" d="M39.25,63.3c-.34,0-.68-.14-.92-.38-.24-.24-.38-.58-.38-.92s.14-.68,.38-.92c.49-.49,1.36-.48,1.84,0,.24,.24,.38,.58,.38,.92s-.14,.68-.38,.92c-.24,.24-.57,.38-.92,.38Z"/>
          <path class="cls-6" d="M37.75,66.3c-.34,0-.68-.14-.92-.38-.24-.24-.38-.58-.38-.92s.14-.68,.38-.92c.49-.49,1.36-.48,1.84,0,.24,.24,.38,.58,.38,.92s-.14,.68-.38,.92c-.24,.24-.57,.38-.92,.38Z"/>
          <path class="cls-6" d="M53,60.55c-.34,0-.67-.14-.92-.38-.24-.24-.38-.58-.38-.92s.14-.67,.38-.92c.49-.48,1.35-.48,1.84,0,.24,.25,.38,.58,.38,.92s-.14,.68-.38,.92c-.24,.24-.57,.38-.92,.38Z"/>
          <path class="cls-6" d="M56,61.05c-.34,0-.68-.14-.92-.38-.24-.24-.38-.58-.38-.92s.14-.68,.38-.92c.49-.48,1.35-.48,1.84,0,.24,.24,.38,.58,.38,.92s-.14,.68-.38,.92c-.24,.24-.58,.38-.92,.38Z"/>
          <path class="cls-6" d="M53.5,65.05c-.34,0-.67-.14-.92-.38-.24-.24-.38-.58-.38-.92s.14-.68,.38-.92c.49-.48,1.36-.48,1.84,0,.24,.24,.38,.58,.38,.92s-.14,.68-.38,.92c-.24,.24-.58,.38-.92,.38Z"/>
          <path class="cls-6" d="M57.5,64.8c-.34,0-.67-.14-.92-.38-.24-.24-.38-.58-.38-.92s.14-.68,.38-.92c.49-.48,1.36-.48,1.84,0,.24,.24,.38,.58,.38,.92s-.14,.68-.38,.92c-.24,.24-.58,.38-.92,.38Z"/>
          <path class="cls-6" d="M53,60.55c-.34,0-.67-.14-.92-.38-.24-.24-.38-.58-.38-.92s.14-.67,.38-.92c.49-.48,1.35-.48,1.84,0,.24,.25,.38,.58,.38,.92s-.14,.68-.38,.92c-.24,.24-.57,.38-.92,.38Z"/>
          <path class="cls-6" d="M56,61.05c-.34,0-.68-.14-.92-.38-.24-.24-.38-.58-.38-.92s.14-.68,.38-.92c.49-.48,1.35-.48,1.84,0,.24,.24,.38,.58,.38,.92s-.14,.68-.38,.92c-.24,.24-.58,.38-.92,.38Z"/>
          <path class="cls-6" d="M53.75,56.55c-.34,0-.68-.14-.92-.38-.24-.24-.38-.58-.38-.92s.14-.68,.38-.92c.49-.48,1.35-.48,1.84,0,.24,.24,.38,.58,.38,.92s-.14,.68-.38,.92c-.24,.24-.57,.38-.92,.38Z"/>
          <path class="cls-6" d="M57.75,58.05c-.34,0-.67-.14-.92-.38-.24-.24-.38-.58-.38-.92s.14-.68,.38-.92c.49-.48,1.35-.48,1.84,0,.24,.24,.38,.58,.38,.92s-.14,.68-.38,.92c-.24,.24-.58,.38-.92,.38Z"/>
          <path class="cls-6" d="M60,61.3c-.34,0-.67-.14-.92-.38-.24-.24-.38-.58-.38-.92s.14-.68,.38-.92c.49-.48,1.35-.48,1.84,0,.24,.24,.38,.58,.38,.92s-.14,.68-.38,.92c-.24,.24-.58,.38-.92,.38Z"/>
          <path class="cls-6" d="M62,63.55c-.34,0-.68-.14-.92-.38-.24-.24-.38-.58-.38-.92s.14-.67,.38-.92c.49-.48,1.35-.48,1.84,0,.24,.24,.38,.58,.38,.92s-.14,.68-.38,.92c-.24,.24-.57,.38-.92,.38Z"/>
          <path class="cls-6" d="M62.5,67.55c-.34,0-.67-.14-.92-.38-.24-.24-.38-.58-.38-.92s.14-.68,.38-.92c.49-.48,1.35-.48,1.84,0,.24,.24,.38,.58,.38,.92s-.14,.68-.38,.92c-.24,.24-.58,.38-.92,.38Z"/>
          <path class="cls-6" d="M64.5,60.05c-.34,0-.68-.14-.92-.38-.24-.24-.38-.58-.38-.92s.14-.68,.38-.92c.48-.48,1.35-.49,1.84,0,.24,.24,.38,.58,.38,.92s-.14,.68-.38,.92c-.24,.24-.57,.38-.92,.38Z"/>
          <path class="cls-6" d="M62.75,57.55c-.34,0-.67-.14-.92-.38-.24-.25-.38-.58-.38-.92s.14-.68,.38-.92c.49-.48,1.35-.48,1.84,0,.24,.24,.38,.58,.38,.92s-.14,.68-.38,.92c-.24,.24-.58,.38-.92,.38Z"/>
          <path class="cls-6" d="M58.5,54.55c-.34,0-.67-.14-.92-.38-.24-.24-.38-.58-.38-.92s.14-.68,.38-.92c.49-.48,1.35-.48,1.84,0,.24,.24,.38,.58,.38,.92s-.14,.68-.38,.92c-.24,.24-.58,.38-.92,.38Z"/>
          <path class="cls-6" d="M66.5,56.3c-.34,0-.67-.14-.92-.38-.24-.24-.38-.58-.38-.92s.14-.68,.38-.92c.49-.48,1.35-.48,1.84,0,.24,.24,.38,.58,.38,.92s-.14,.68-.38,.92c-.24,.24-.58,.38-.92,.38Z"/>
          <path class="cls-6" d="M66.75,63.55c-.34,0-.68-.14-.92-.38-.24-.24-.38-.58-.38-.92s.14-.68,.38-.92c.49-.49,1.36-.48,1.84,0,.24,.24,.38,.58,.38,.92s-.14,.68-.38,.92c-.24,.24-.57,.38-.92,.38Z"/>
          <path class="cls-6" d="M53.5,53.05c-.34,0-.67-.14-.92-.38-.24-.24-.38-.58-.38-.92s.14-.68,.38-.92c.49-.48,1.36-.48,1.84,0,.24,.24,.38,.58,.38,.92s-.14,.68-.38,.92c-.24,.24-.58,.38-.92,.38Z"/>
          <path class="cls-6" d="M58.25,68.3c-.34,0-.68-.14-.92-.38-.24-.24-.38-.58-.38-.92s.14-.68,.38-.92c.49-.48,1.36-.48,1.84,0,.24,.24,.38,.58,.38,.92s-.14,.68-.38,.92c-.24,.24-.57,.38-.92,.38Z"/>
          <path class="cls-6" d="M64.25,70.3c-.34,0-.67-.14-.92-.38-.24-.24-.38-.58-.38-.92s.14-.68,.38-.92c.48-.48,1.36-.48,1.84,0,.24,.24,.38,.58,.38,.92s-.14,.68-.38,.92c-.24,.24-.58,.38-.92,.38Z"/>
          <path class="cls-6" d="M65.25,52.8c-.34,0-.68-.14-.92-.38-.24-.24-.38-.58-.38-.92s.14-.68,.38-.92c.48-.48,1.36-.48,1.84,0,.24,.24,.38,.58,.38,.92s-.14,.68-.38,.92c-.24,.24-.58,.38-.92,.38Z"/>
          <path class="cls-6" d="M9.5,26.3c-.34,0-.67-.14-.92-.38-.24-.24-.38-.58-.38-.92s.14-.68,.38-.92c.48-.48,1.36-.48,1.84,0,.25,.24,.38,.58,.38,.92s-.13,.67-.38,.92c-.24,.24-.58,.38-.92,.38Z"/>
          <path class="cls-6" d="M5.75,62.8c-.34,0-.67-.14-.92-.38-.24-.24-.38-.58-.38-.92s.14-.68,.38-.92c.49-.48,1.36-.48,1.84,0,.24,.25,.38,.58,.38,.92s-.14,.67-.38,.92c-.24,.24-.58,.38-.92,.38Z"/>
          <path class="cls-6" d="M30.25,63.8c-.34,0-.67-.14-.92-.38-.24-.24-.38-.58-.38-.92s.14-.68,.38-.92c.48-.48,1.36-.48,1.84,0,.24,.24,.38,.58,.38,.92s-.14,.68-.38,.92c-.24,.24-.58,.38-.92,.38Z"/>
          <path class="cls-6" d="M40.5,58.3c-.34,0-.67-.14-.92-.38-.24-.24-.38-.58-.38-.92s.14-.68,.38-.92c.49-.48,1.36-.48,1.84,0,.24,.24,.38,.58,.38,.92s-.14,.68-.38,.92c-.24,.24-.58,.38-.92,.38Z"/>
          <path class="cls-6" d="M47.25,56.8c-.34,0-.68-.14-.92-.38-.24-.24-.38-.58-.38-.92s.14-.68,.38-.92c.49-.49,1.36-.48,1.84,0,.24,.24,.38,.58,.38,.92s-.14,.68-.38,.92c-.24,.24-.58,.38-.92,.38Z"/>
          <path class="cls-6" d="M41,72.8c-.34,0-.67-.14-.92-.38-.24-.24-.38-.58-.38-.92s.14-.68,.38-.92c.48-.48,1.36-.48,1.84,0,.24,.24,.38,.58,.38,.92s-.14,.68-.38,.92c-.24,.24-.58,.38-.92,.38Z"/>
          <path class="cls-6" d="M11.5,74.05c-.34,0-.67-.14-.92-.38-.24-.24-.38-.58-.38-.92s.14-.68,.38-.92c.48-.48,1.36-.48,1.84,0,.24,.24,.38,.58,.38,.92s-.14,.68-.38,.92c-.24,.24-.58,.38-.92,.38Z"/>
          <path class="cls-6" d="M21.25,73.8c-.34,0-.67-.14-.92-.38-.24-.24-.38-.58-.38-.92s.14-.67,.38-.92c.48-.48,1.35-.48,1.84,0,.24,.24,.38,.58,.38,.92s-.14,.68-.38,.92c-.24,.24-.58,.38-.92,.38Z"/>
          <path class="cls-6" d="M17,74.55c-.34,0-.68-.14-.92-.38-.24-.24-.38-.58-.38-.92s.14-.68,.38-.92c.49-.48,1.36-.48,1.84,0,.24,.24,.38,.58,.38,.92s-.14,.68-.38,.92c-.24,.24-.57,.38-.92,.38Z"/>
          <path class="cls-6" d="M27.75,74.55c-.34,0-.68-.14-.92-.38-.24-.24-.38-.58-.38-.92s.14-.68,.38-.92c.49-.48,1.36-.48,1.84,0,.24,.24,.38,.58,.38,.92s-.14,.68-.38,.92c-.24,.24-.57,.38-.92,.38Z"/>
          <path class="cls-6" d="M55,73.55c-.34,0-.68-.14-.92-.38-.24-.24-.38-.58-.38-.92s.14-.68,.38-.92c.49-.48,1.36-.48,1.84,0,.24,.24,.38,.58,.38,.92s-.14,.68-.38,.92c-.24,.24-.58,.38-.92,.38Z"/>
          <path class="cls-6" d="M7.75,74.05c-.34,0-.67-.14-.92-.38-.24-.24-.38-.58-.38-.92s.14-.68,.38-.92c.48-.48,1.36-.48,1.84,0,.24,.24,.38,.58,.38,.92s-.14,.67-.38,.92c-.24,.24-.58,.38-.92,.38Z"/>
          <path class="cls-6" d="M55,73.55c-.34,0-.68-.14-.92-.38-.24-.24-.38-.58-.38-.92s.14-.68,.38-.92c.49-.48,1.36-.48,1.84,0,.24,.24,.38,.58,.38,.92s-.14,.68-.38,.92c-.24,.24-.58,.38-.92,.38Z"/>
          <path class="cls-6" d="M72.5,10.3c-.34,0-.68-.14-.92-.38-.24-.24-.38-.58-.38-.92s.14-.67,.38-.92c.49-.49,1.36-.49,1.84,0,.24,.24,.38,.58,.38,.92s-.14,.68-.38,.92c-.24,.24-.58,.38-.92,.38Z"/>
          <path class="cls-6" d="M72.75,13.55c-.34,0-.67-.14-.92-.38-.24-.24-.38-.58-.38-.92s.14-.68,.38-.92c.48-.48,1.36-.49,1.84,0,.24,.24,.38,.58,.38,.92s-.14,.68-.38,.92c-.24,.24-.58,.38-.92,.38Z"/>
          <path class="cls-6" d="M73,20.8c-.34,0-.68-.14-.92-.38-.24-.24-.38-.58-.38-.92s.14-.68,.38-.92c.49-.48,1.36-.48,1.84,0,.24,.24,.38,.58,.38,.92s-.14,.68-.38,.92c-.24,.24-.58,.38-.92,.38Z"/>
          <path class="cls-6" d="M72.25,24.05c-.34,0-.68-.14-.92-.38-.24-.24-.38-.58-.38-.92s.14-.68,.38-.92c.49-.48,1.36-.48,1.84,0,.24,.24,.38,.58,.38,.92s-.14,.68-.38,.92c-.24,.24-.58,.38-.92,.38Z"/>
          <path class="cls-6" d="M72.75,72.05c-.34,0-.67-.14-.92-.38-.24-.24-.38-.58-.38-.92s.14-.68,.38-.92c.48-.48,1.36-.49,1.84,0,.24,.24,.38,.58,.38,.92s-.14,.68-.38,.92c-.24,.24-.58,.38-.92,.38Z"/>
          <path class="cls-6" d="M73.25,46.55c-.34,0-.67-.14-.92-.38-.24-.24-.38-.58-.38-.92s.14-.68,.38-.92c.48-.48,1.36-.49,1.84,0,.24,.24,.38,.58,.38,.92s-.14,.68-.38,.92c-.24,.24-.58,.38-.92,.38Z"/>
          <path class="cls-6" d="M72.25,57.3c-.34,0-.68-.14-.92-.38-.24-.24-.38-.58-.38-.92s.14-.68,.38-.92c.49-.48,1.36-.48,1.84,0,.24,.24,.38,.58,.38,.92s-.14,.68-.38,.92c-.24,.24-.58,.38-.92,.38Z"/>
          <path class="cls-6" d="M73.25,53.3c-.34,0-.68-.14-.92-.38-.24-.24-.38-.58-.38-.92s.14-.68,.38-.92c.49-.48,1.36-.48,1.84,0,.24,.24,.38,.58,.38,.92s-.14,.68-.38,.92c-.24,.24-.58,.38-.92,.38Z"/>
          <path class="cls-6" d="M46.25,71.8c-.34,0-.67-.14-.92-.38-.24-.24-.38-.58-.38-.92s.14-.67,.38-.92c.49-.48,1.35-.48,1.84,0,.24,.25,.38,.58,.38,.92s-.14,.68-.38,.92c-.24,.24-.58,.38-.92,.38Z"/>
          <path class="cls-6" d="M40.5,69.3c-.34,0-.67-.14-.92-.38-.24-.24-.38-.58-.38-.92s.14-.68,.38-.92c.48-.48,1.36-.48,1.84,0,.24,.24,.38,.58,.38,.92s-.14,.68-.38,.92c-.24,.24-.58,.38-.92,.38Z"/>
        </g>
        <g>
          <path class="cls-6" d="M-1.25,3.3c-.34,0-.67-.14-.92-.38-.24-.25-.38-.58-.38-.92s.14-.68,.38-.92c.49-.48,1.36-.48,1.84,0C-.09,1.32,.05,1.66,.05,2s-.14,.68-.38,.92c-.24,.24-.58,.38-.92,.38Z"/>
          <path class="cls-6" d="M-.5,18.05c-.34,0-.67-.14-.92-.38-.24-.24-.38-.58-.38-.92s.14-.68,.38-.92c.48-.48,1.36-.48,1.84,0,.24,.24,.38,.58,.38,.92s-.14,.68-.38,.92c-.24,.24-.58,.38-.92,.38Z"/>
          <path class="cls-6" d="M-.75,29.05c-.34,0-.67-.14-.92-.38-.24-.24-.38-.58-.38-.92s.14-.68,.38-.92c.49-.48,1.36-.48,1.84,0,.24,.24,.38,.58,.38,.92s-.14,.68-.38,.92c-.24,.24-.58,.38-.92,.38Z"/>
          <path class="cls-6" d="M-.5,39.05c-.34,0-.68-.14-.92-.38-.24-.24-.38-.58-.38-.92s.14-.68,.38-.92c.49-.48,1.36-.48,1.84,0,.24,.24,.38,.58,.38,.92s-.14,.68-.38,.92c-.24,.24-.58,.38-.92,.38Z"/>
          <path class="cls-6" d="M-1.25,43.05c-.34,0-.67-.14-.92-.38-.24-.24-.38-.58-.38-.92s.14-.67,.38-.92c.48-.48,1.36-.48,1.84,0,.24,.24,.38,.58,.38,.92s-.14,.68-.38,.92c-.24,.24-.58,.38-.92,.38Z"/>
          <path class="cls-6" d="M.75,66.55c-.34,0-.67-.14-.92-.38-.24-.24-.38-.58-.38-.92s.14-.68,.38-.92c.48-.48,1.36-.48,1.84,0,.24,.24,.38,.58,.38,.92s-.14,.68-.38,.92c-.24,.24-.58,.38-.92,.38Z"/>
          <path class="cls-6" d="M-1,62.8c-.34,0-.68-.14-.92-.38-.24-.24-.38-.58-.38-.92s.14-.68,.38-.92c.48-.48,1.35-.48,1.84,0,.24,.24,.38,.58,.38,.92s-.14,.68-.38,.92c-.24,.24-.58,.38-.92,.38Z"/>
          <path class="cls-6" d="M.5,10.3c-.34,0-.68-.14-.92-.38-.24-.24-.38-.58-.38-.92s.14-.67,.38-.92c.49-.49,1.36-.49,1.84,0,.24,.24,.38,.58,.38,.92s-.14,.68-.38,.92c-.24,.24-.58,.38-.92,.38Z"/>
          <path class="cls-6" d="M.75,13.55c-.34,0-.67-.14-.92-.38-.24-.24-.38-.58-.38-.92s.14-.68,.38-.92c.48-.48,1.36-.49,1.84,0,.24,.24,.38,.58,.38,.92s-.14,.68-.38,.92c-.24,.24-.58,.38-.92,.38Z"/>
          <path class="cls-6" d="M1,20.8c-.34,0-.68-.14-.92-.38-.24-.24-.38-.58-.38-.92s.14-.68,.38-.92c.49-.48,1.36-.48,1.84,0,.24,.24,.38,.58,.38,.92s-.14,.68-.38,.92c-.24,.24-.58,.38-.92,.38Z"/>
          <path class="cls-6" d="M.25,24.05c-.34,0-.68-.14-.92-.38-.24-.24-.38-.58-.38-.92s.14-.68,.38-.92c.49-.48,1.36-.48,1.84,0,.24,.24,.38,.58,.38,.92s-.14,.68-.38,.92c-.24,.24-.58,.38-.92,.38Z"/>
          <path class="cls-6" d="M.75,72.05c-.34,0-.67-.14-.92-.38-.24-.24-.38-.58-.38-.92s.14-.68,.38-.92c.48-.48,1.36-.49,1.84,0,.24,.24,.38,.58,.38,.92s-.14,.68-.38,.92c-.24,.24-.58,.38-.92,.38Z"/>
          <path class="cls-6" d="M1.25,46.55c-.34,0-.67-.14-.92-.38-.24-.24-.38-.58-.38-.92s.14-.68,.38-.92c.48-.48,1.36-.49,1.84,0,.24,.24,.38,.58,.38,.92s-.14,.68-.38,.92c-.24,.24-.58,.38-.92,.38Z"/>
          <path class="cls-6" d="M.25,57.3c-.34,0-.68-.14-.92-.38-.24-.24-.38-.58-.38-.92s.14-.68,.38-.92c.49-.48,1.36-.48,1.84,0,.24,.24,.38,.58,.38,.92s-.14,.68-.38,.92c-.24,.24-.58,.38-.92,.38Z"/>
          <path class="cls-6" d="M1.25,53.3c-.34,0-.68-.14-.92-.38-.24-.24-.38-.58-.38-.92s.14-.68,.38-.92c.49-.48,1.36-.48,1.84,0,.24,.24,.38,.58,.38,.92s-.14,.68-.38,.92c-.24,.24-.58,.38-.92,.38Z"/>
        </g>
        <g>
          <path class="cls-6" d="M67.75,.55c-.34,0-.68-.14-.92-.38-.24-.24-.38-.58-.38-.92s.14-.68,.38-.92c.48-.48,1.36-.48,1.84,0,.24,.24,.38,.58,.38,.92s-.14,.68-.38,.92c-.24,.24-.57,.38-.92,.38Z"/>
          <path class="cls-6" d="M55,1.55c-.34,0-.68-.14-.92-.38-.24-.24-.38-.58-.38-.92s.14-.68,.38-.92c.49-.48,1.36-.48,1.84,0,.24,.24,.38,.58,.38,.92s-.14,.68-.38,.92c-.24,.24-.58,.38-.92,.38Z"/>
          <path class="cls-6" d="M41,.8c-.34,0-.67-.14-.92-.38-.24-.24-.38-.58-.38-.92s.14-.68,.38-.92c.48-.48,1.36-.48,1.84,0,.24,.24,.38,.58,.38,.92s-.14,.68-.38,.92c-.24,.24-.58,.38-.92,.38Z"/>
          <path class="cls-6" d="M11.5,2.05c-.34,0-.67-.14-.92-.38-.24-.24-.38-.58-.38-.92s.14-.68,.38-.92c.48-.48,1.36-.48,1.84,0,.24,.24,.38,.58,.38,.92s-.14,.68-.38,.92c-.24,.24-.58,.38-.92,.38Z"/>
          <path class="cls-6" d="M21.25,1.8c-.34,0-.67-.14-.92-.38-.24-.24-.38-.58-.38-.92s.14-.67,.38-.92c.48-.48,1.35-.48,1.84,0,.24,.24,.38,.58,.38,.92s-.14,.68-.38,.92c-.24,.24-.58,.38-.92,.38Z"/>
          <path class="cls-6" d="M17,2.55c-.34,0-.68-.14-.92-.38-.24-.24-.38-.58-.38-.92s.14-.68,.38-.92c.49-.48,1.36-.48,1.84,0,.24,.24,.38,.58,.38,.92s-.14,.68-.38,.92c-.24,.24-.57,.38-.92,.38Z"/>
          <path class="cls-6" d="M27.75,2.55c-.34,0-.68-.14-.92-.38-.24-.24-.38-.58-.38-.92s.14-.68,.38-.92c.49-.48,1.36-.48,1.84,0,.24,.24,.38,.58,.38,.92s-.14,.68-.38,.92c-.24,.24-.57,.38-.92,.38Z"/>
          <path class="cls-6" d="M55,1.55c-.34,0-.68-.14-.92-.38-.24-.24-.38-.58-.38-.92s.14-.68,.38-.92c.49-.48,1.36-.48,1.84,0,.24,.24,.38,.58,.38,.92s-.14,.68-.38,.92c-.24,.24-.58,.38-.92,.38Z"/>
          <path class="cls-6" d="M7.75,2.05c-.34,0-.67-.14-.92-.38-.24-.24-.38-.58-.38-.92s.14-.68,.38-.92c.48-.48,1.36-.48,1.84,0,.24,.24,.38,.58,.38,.92s-.14,.67-.38,.92c-.24,.24-.58,.38-.92,.38Z"/>
          <path class="cls-6" d="M55,1.55c-.34,0-.68-.14-.92-.38-.24-.24-.38-.58-.38-.92s.14-.68,.38-.92c.49-.48,1.36-.48,1.84,0,.24,.24,.38,.58,.38,.92s-.14,.68-.38,.92c-.24,.24-.58,.38-.92,.38Z"/>
          <path class="cls-6" d="M72.75,.05c-.34,0-.67-.14-.92-.38-.24-.24-.38-.58-.38-.92s.14-.68,.38-.92c.48-.48,1.36-.49,1.84,0,.24,.24,.38,.58,.38,.92s-.14,.68-.38,.92c-.24,.24-.58,.38-.92,.38Z"/>
        </g>
        <path class="cls-6" d="M.75,.05C.41,.05,.08-.09-.17-.33c-.24-.24-.38-.58-.38-.92s.14-.68,.38-.92c.48-.48,1.36-.49,1.84,0,.24,.24,.38,.58,.38,.92s-.14,.68-.38,.92C1.43-.09,1.09,.05,.75,.05Z"/>
      </g>
    </pattern>
  </defs>
  <g class="cls-4">
    <g id="Layer_2" data-name="Layer 2">
      <rect class="cls-3" y="0" width="1920" height="1080"/>
      <rect class="cls-2" y="0" width="1920" height="1080"/>
      <g class="cls-7">
        <g>
          <path class="cls-1" d="M596.53,175.74H321.05c-6.38,0-11.54,5.17-11.54,11.54h0c0,6.17,4.86,11.26,11.03,11.53l40.38,1.81c2.97,.13,5.78,1.41,7.83,3.56l29.56,30.94c2.05,2.15,3.2,5,3.2,7.97v462.69c0,.68-.06,1.36-.18,2.03l-19.85,111.15c-.56,3.14-2.4,5.91-5.08,7.65l-82.88,53.8c-4.76,3.09-6.57,9.18-4.26,14.37l1.16,2.61c2.66,5.99,9.77,8.56,15.65,5.67l147.64-72.68c1.96-.96,3.6-2.46,4.74-4.32l66.8-108.95c1.11-1.82,1.7-3.9,1.7-6.03V242.86c0-2.83,1.04-5.56,2.92-7.67l27.33-30.75c2.05-2.31,4.94-3.7,8.02-3.86l31.92-1.68c6.13-.32,10.94-5.39,10.94-11.53v-.09c0-6.38-5.17-11.54-11.54-11.54Z"/>
          <path class="cls-1" d="M1347.27,231.9l28.86-28.86c1.42-1.42,3.32-2.27,5.33-2.37l36.84-1.94c4.33-.23,7.72-3.8,7.72-8.13v-6.71c0-4.5-3.65-8.14-8.14-8.14h-193.01c-3.28,0-6.25,1.97-7.51,5l-162.66,389.28c-2.79,6.68-12.25,6.67-15.03-.01l-161.86-389.25c-1.26-3.04-4.23-5.02-7.52-5.02h-208.05c-4.5,0-8.14,3.65-8.14,8.14v6.74c0,4.32,3.37,7.89,7.68,8.13l33.76,1.91c1.86,.11,3.64,.85,5.02,2.1l32.01,29.1c1.69,1.54,2.66,3.71,2.67,6l1.65,446.62c0,1.47-.39,2.92-1.14,4.19l-28.4,47.84c-1.39,2.34-3.87,3.84-6.59,3.98l-37.25,1.89c-4.33,.22-7.73,3.8-7.73,8.13v6.7c0,4.5,3.65,8.14,8.14,8.14h191.96c4.5,0,8.14-3.65,8.14-8.14v-6.69c0-4.34-3.4-7.92-7.74-8.13l-37.98-1.9c-2.78-.14-5.29-1.69-6.67-4.1l-27.68-48.62c-.69-1.22-1.06-2.6-1.07-4l-1.51-387.81c-.03-8.87,12.12-11.39,15.62-3.25l201.22,467.72c1.29,2.99,4.23,4.93,7.48,4.93h29.93c3.42,0,6.47-2.13,7.65-5.34l168.76-460.86c3.13-8.55,15.79-6.3,15.79,2.8v397.52c0,2.03-.76,3.98-2.12,5.48l-29.91,32.83c-1.44,1.58-3.45,2.54-5.59,2.65l-36.62,1.93c-4.33,.23-7.72,3.8-7.72,8.13v6.71c0,4.5,3.65,8.14,8.14,8.14h263.88c4.5,0,8.14-3.65,8.14-8.14v-6.71c0-4.33-3.39-7.9-7.72-8.13l-36.56-1.92c-2.17-.11-4.21-1.09-5.66-2.72l-29.14-32.78c-1.33-1.49-2.06-3.42-2.06-5.41V237.66c0-2.16,.86-4.23,2.39-5.76Z"/>
        </g>
        <path class="cls-1" d="M1607.49,767.86l-48.51,7.53-44.33-19.24-12.54-50.18,25.93-41.82,49.34-10.04,42.65,19.24,11.71,48.51-24.25,46Z"/>
      </g>
    </g>
  </g>
</svg>