<?xml version="1.0" encoding="UTF-8"?>
<svg id="Layer_4" data-name="Layer 4" xmlns="http://www.w3.org/2000/svg" viewBox="0 0 250 150">
  <path d="M247.82,70.29c-.42-6.15-1.68-12.07-3.66-17.65-2.94-8.34-7.49-15.91-13.27-22.36-1.65-1.86-3.41-3.62-5.27-5.27-6.45-5.78-14.02-10.33-22.36-13.27-7-2.48-14.52-3.82-22.36-3.82s-15.36,1.35-22.36,3.82c-8.34,2.94-15.91,7.49-22.37,13.27V7.92H24.38V30.28h44.72c8.15,0,15.78,2.18,22.36,5.99,6.79,3.93,12.45,9.59,16.37,16.37,3.81,6.58,5.99,14.21,5.99,22.36s-2.18,15.79-5.99,22.37c-3.93,6.79-9.58,12.45-16.37,16.37-6.58,3.81-14.21,5.99-22.36,5.99s-15.78-2.18-22.36-5.99c-6.79-3.93-12.45-9.58-16.37-16.37h38.73v-22.37H2.01c0,7.84,1.35,15.37,3.82,22.37,.92,2.61,1.99,5.14,3.22,7.58,2.68,5.38,6.07,10.34,10.04,14.78,1.66,1.85,3.42,3.62,5.27,5.27,6.45,5.78,14.03,10.32,22.36,13.26,6.99,2.48,14.52,3.82,22.36,3.82s15.37-1.35,22.36-3.82c8.34-2.94,15.91-7.49,22.36-13.27,1.86-1.66,3.62-3.41,5.27-5.27,2.15-2.4,4.13-4.95,5.91-7.64,1.78,2.69,3.76,5.25,5.91,7.64,1.66,1.85,3.41,3.61,5.27,5.27,6.45,5.78,14.03,10.33,22.37,13.27v-24.52c-6.79-3.92-12.45-9.58-16.38-16.37-3.81-6.58-5.99-14.22-5.99-22.37s2.18-15.78,5.99-22.36c3.93-6.79,9.59-12.45,16.38-16.37v38.73h44.72V36.26c6.78,3.93,12.45,9.59,16.37,16.37,3.81,6.58,5.99,14.21,5.99,22.36s-2.18,15.79-5.99,22.37c-3.93,6.79-9.59,12.45-16.37,16.37v24.52c8.34-2.94,15.91-7.49,22.36-13.27,1.86-1.66,3.62-3.41,5.27-5.27,3.98-4.43,7.36-9.4,10.04-14.78,1.23-2.45,2.31-4.97,3.22-7.58,2.48-7,3.82-14.53,3.82-22.37,0-1.58-.06-3.16-.17-4.71ZM125,37.92c-1.78-2.69-3.76-5.25-5.91-7.64h11.82c-2.15,2.4-4.13,4.95-5.91,7.64Z"/>
</svg>