<?xml version="1.0" encoding="UTF-8"?>
<svg id="Layer_3" data-name="Layer 3" xmlns="http://www.w3.org/2000/svg" viewBox="0 0 324.69 237.74">
  <defs>
    <style>
      .cls-1 {
        fill: #fff;
      }
    </style>
  </defs>
  <path class="cls-1" d="M128.7,130.29c1.7-2.83,4.29-7.27,7.79-13.32,3.49-6.04,7.18-12.79,11.05-20.26,3.87-7.46,7.65-15.34,11.33-23.66,3.68-8.31,6.56-16.2,8.64-23.66,2.08-7.46,3.02-14.12,2.83-19.98-.19-5.85-2.08-10.01-5.67-12.47-2.46-1.7-5.43-2.64-8.93-2.83-3.5-.19-7.18,.05-11.05,.71-3.87,.66-7.61,1.61-11.19,2.83-3.59,1.23-6.61,2.31-9.07,3.26-9.64,3.78-18.18,8.07-25.64,12.89-7.47,4.82-14.69,11.1-21.68,18.84-3.02,3.22-5.95,7.08-8.78,11.62s-4.16,9.16-3.97,13.88c.19,3.4,1.51,6.8,3.97,10.2,2.45,3.4,5.57,5.1,9.35,5.1,1.13,0,1.94,.36,2.41,1.09,.47,.73,.71,1.5,.71,2.31s-.24,1.58-.71,2.31c-.47,.73-1.27,1.09-2.41,1.09-3.97,0-7.42-1.04-10.34-3.13-2.93-2.08-5.15-4.73-6.66-7.93-1.52-3.2-2.41-6.7-2.69-10.48-.28-3.78,.14-7.37,1.28-10.77,2.45-7.37,7.18-14.64,14.17-21.82,6.99-7.18,14.97-13.6,23.94-19.27,8.97-5.67,18.28-10.29,27.91-13.89,9.64-3.59,18.37-5.43,26.21-5.52,7.84-.09,14.17,1.84,18.98,5.81,4.82,3.97,6.94,10.58,6.38,19.84-.57,7.75-2.17,15.82-4.82,24.23-2.65,8.41-5.86,16.8-9.64,25.19-3.78,8.38-7.84,16.5-12.18,24.37-4.35,7.86-8.41,15.1-12.18,21.71,2.27-1.13,4.06-1.51,5.38-1.13,1.32,.38,2.27,.99,2.83,1.84,.57,.85,.71,1.8,.43,2.83-.28,1.04-.99,1.75-2.13,2.13-1.51,.57-3.36,.99-5.52,1.27-2.17,.28-4.11,.62-5.81,.99-3.03,4.53-7.08,10.44-12.19,17.71-5.1,7.27-11.01,14.92-17.71,22.95-6.71,8.03-13.88,15.82-21.54,23.38-7.65,7.56-15.44,13.88-23.38,18.98-7.93,5.1-15.77,8.45-23.52,10.06-7.75,1.6-14.92,.33-21.53-3.83-2.27-1.51-4.15-3.36-5.67-5.52-1.51-2.17-2.55-4.58-3.12-7.22-1.13-5.1-.66-10.06,1.42-14.88,2.08-4.82,4.96-9.3,8.64-13.46,3.68-4.15,7.79-7.98,12.33-11.48,4.53-3.5,8.69-6.56,12.47-9.21,6.61-4.53,13.5-8.45,20.68-11.76,7.18-3.3,14.54-6.28,22.1-8.92,7.55-2.64,15.2-5,22.95-7.08,7.74-2.08,15.58-4.06,23.52-5.95Zm-96.34,47.04c-13.03,11.15-19.74,21.63-20.12,31.45-.19,5.1,1.52,9.16,5.1,12.18,3.59,3.02,8.69,3.87,15.3,2.55,8.12-1.7,16.53-5.72,25.22-12.04,8.69-6.33,17.14-13.6,25.36-21.82,8.22-8.22,15.96-16.9,23.24-26.07,7.27-9.16,13.46-17.43,18.56-24.79-7.75,1.13-15.73,2.74-23.94,4.82-8.22,2.08-16.34,4.73-24.37,7.93-8.03,3.22-15.82,6.94-23.38,11.19-7.56,4.25-14.55,9.11-20.97,14.59Z"/>
  <path class="cls-1" d="M198.52,159.56c1.46-.78,3.17-2.1,5.13-3.95,1.96-1.85,3.92-3.87,5.89-6.05,1.96-2.19,3.84-4.34,5.63-6.47,1.79-2.13,3.36-3.87,4.71-5.21,7.4-7.85,14.85-15.56,22.37-23.12,7.51-7.57,15.3-14.88,23.38-21.95,1.68-1.46,3.87-3.31,6.56-5.55,2.69-2.24,5.6-4.62,8.74-7.15,3.14-2.52,6.42-5.1,9.84-7.74,3.42-2.63,6.73-5.1,9.92-7.4,3.2-2.3,6.19-4.34,9-6.14,2.8-1.79,5.15-3.08,7.06-3.87,.45-.22,.98-.28,1.6-.17,.61,.11,1.03,.39,1.26,.84,.78,1.24,1.15,2.55,1.09,3.95-.06,1.4-.37,2.8-.93,4.2-.56,1.4-1.24,2.77-2.02,4.12-.79,1.34-1.46,2.52-2.02,3.53-6.84,11.89-13.96,23.63-21.36,35.23-7.4,11.6-14.91,23.18-22.53,34.73-2.92,4.37-5.83,8.74-8.74,13.12-2.92,4.37-5.83,8.74-8.74,13.12-1.91,2.92-3.76,5.89-5.55,8.91-1.79,3.03-3.48,6.17-5.05,9.42-.56,1.24-1.07,2.55-1.51,3.95-.45,1.4-1.01,2.72-1.68,3.95-.79,1.23-1.74,1.68-2.86,1.34-1.12-.34-1.57-1.12-1.34-2.35,.45-2.02,1.29-4.32,2.52-6.9,1.23-2.58,2.66-5.21,4.29-7.9,1.62-2.69,3.25-5.3,4.88-7.82,1.62-2.52,3.05-4.68,4.29-6.47,.67-1.01,2.13-3.2,4.37-6.56,2.24-3.36,4.93-7.45,8.07-12.28,3.14-4.82,6.58-10.17,10.34-16.06,3.75-5.89,7.57-11.83,11.44-17.83,3.87-6,7.59-11.91,11.18-17.74,3.59-5.83,6.78-11.07,9.59-15.72,2.8-4.65,5.05-8.55,6.73-11.69,1.68-3.14,2.52-5.05,2.52-5.72-14.13,8.07-27.36,17.4-39.69,28-12.33,10.59-24.16,21.67-35.48,33.21-5.61,5.72-11.04,11.49-16.31,17.32-5.27,5.83-10.65,11.6-16.14,17.32-.34,.34-1.32,1.26-2.94,2.78-1.63,1.51-3.36,2.89-5.21,4.12-1.85,1.24-3.51,1.99-4.96,2.27-1.46,.28-2.19-.53-2.19-2.44-.11-2.47,.48-5.44,1.77-8.91,1.29-3.47,2.91-7.12,4.88-10.93,1.96-3.81,4.09-7.74,6.39-11.77,2.3-4.04,4.43-7.9,6.39-11.6,1.96-3.7,3.61-7.12,4.96-10.26,1.34-3.14,2.02-5.77,2.02-7.9-1.46,.79-3.53,2.38-6.22,4.79-2.69,2.41-5.72,5.27-9.08,8.58-3.36,3.31-6.87,6.87-10.51,10.68-3.64,3.81-7.12,7.51-10.43,11.1-3.31,3.59-6.28,6.84-8.91,9.75-2.64,2.92-4.62,5.1-5.97,6.56-4.93,5.72-9.67,11.49-14.21,17.32-4.54,5.83-9.17,11.66-13.87,17.49-.34,.34-.7,.87-1.09,1.6-.39,.73-.81,1.37-1.26,1.93-.45,.56-.98,.98-1.6,1.26-.62,.28-1.26,.25-1.93-.08-.79-.45-1.12-1.03-1.01-1.76,.11-.73,.45-1.51,1.01-2.35,.56-.84,1.18-1.65,1.85-2.44,.67-.78,1.18-1.4,1.51-1.85,4.93-7.17,9.84-14.3,14.72-21.36,4.88-7.06,9.84-14.13,14.88-21.19,.9-1.23,2.38-3.31,4.46-6.22,2.07-2.91,4.37-6.22,6.89-9.92,2.52-3.7,5.16-7.62,7.9-11.77,2.75-4.15,5.24-8.07,7.48-11.77,2.24-3.7,4.04-6.95,5.38-9.75,1.35-2.8,1.91-4.71,1.68-5.72-.22-.9-.7-1.57-1.43-2.02-.73-.45-1.6-.73-2.61-.84-1.01-.11-1.99-.14-2.94-.08-.95,.06-1.77,.14-2.44,.25-2.24,.34-5.89,1.12-10.93,2.35-5.04,1.24-10.68,2.75-16.9,4.54-6.22,1.8-12.64,3.78-19.26,5.97-6.62,2.19-12.61,4.48-17.99,6.9-5.38,2.41-9.75,4.88-13.12,7.4s-4.93,4.91-4.71,7.15c.11,1.46,1.12,2.75,3.03,3.87,1.91,1.12,4.2,2.1,6.9,2.94s5.6,1.57,8.74,2.19c3.14,.62,6.05,1.21,8.74,1.77,2.69,.56,4.9,1.09,6.64,1.6,1.74,.51,2.61,1.09,2.61,1.77-.22,.45-.53,.87-.92,1.26-.39,.39-.87,.53-1.43,.42-3.59,0-7.23-.48-10.93-1.43-3.7-.95-7.23-1.88-10.59-2.77-2.13-.56-4.32-1.2-6.56-1.93-2.24-.73-4.32-1.65-6.22-2.78-.79-.45-1.57-1.15-2.35-2.1-.79-.95-1.29-1.88-1.51-2.78-.22-.9-.28-1.99-.17-3.28,.11-1.29,.34-2.38,.67-3.28,.78-2.02,3.28-4.29,7.48-6.81,4.2-2.52,9.27-5.1,15.22-7.74,5.94-2.63,12.41-5.18,19.42-7.65,7.01-2.46,13.73-4.62,20.18-6.47,6.45-1.85,12.3-3.25,17.57-4.2,5.27-.95,9.14-1.32,11.6-1.09,2.02,.23,3.95,1.07,5.8,2.52,1.85,1.46,2.66,3.36,2.44,5.72-.23,2.02-1.01,4.2-2.35,6.56-1.34,2.35-2.52,4.43-3.53,6.22-4.37,8.07-9.17,15.86-14.38,23.37-5.21,7.51-10.51,14.97-15.89,22.37l-.17,.67c1.23-1.46,3.17-3.73,5.8-6.81,2.63-3.08,5.63-6.45,9-10.09,3.36-3.64,6.92-7.4,10.68-11.27,3.75-3.87,7.37-7.4,10.85-10.59,3.47-3.2,6.64-5.8,9.5-7.82,2.86-2.02,5.07-3.08,6.64-3.2,.56-.34,1.03-.34,1.43,0,.39,.34,.7,.79,.93,1.34,.34,1.01,.36,2.22,.08,3.62-.28,1.4-.67,2.86-1.18,4.37-.5,1.51-1.07,2.97-1.68,4.37-.62,1.4-1.15,2.55-1.6,3.45-1.91,3.7-3.87,7.4-5.89,11.1-2.02,3.7-4.01,7.43-5.97,11.18-1.96,3.76-3.78,7.54-5.47,11.35-1.68,3.81-3.03,7.73-4.04,11.77Z"/>
  <path class="cls-1" d="M292.64,157.66c1.16,0,2.07,.37,2.7,1.11,.63,.74,.95,1.59,.95,2.54s-.35,1.8-1.03,2.54c-.69,.74-1.77,1.11-3.26,1.11-.95,0-1.72-.37-2.3-1.11-.58-.74-.9-1.59-.95-2.54-.05-.95,.24-1.8,.87-2.54,.64-.74,1.64-1.11,3.02-1.11Z"/>
</svg>