<?xml version="1.0" encoding="UTF-8"?>
<svg xmlns="http://www.w3.org/2000/svg" viewBox="0 0 324.69 237.74">
  <defs>
    <style>
      .cls-1 {
        fill: #fff;
      }

      .cls-2 {
        fill: red;
      }
    </style>
  </defs>
  <g id="Layer_1" data-name="Layer 1">
    <circle class="cls-1" cx="162.34" cy="118.87" r="114.28"/>
  </g>
  <g id="Layer_3" data-name="Layer 3">
    <g>
      <path d="M145.66,124.53c.84-1.41,2.13-3.6,3.86-6.6,1.73-3,3.56-6.34,5.48-10.05,1.92-3.7,3.79-7.61,5.62-11.73,1.83-4.12,3.25-8.03,4.29-11.73,1.03-3.7,1.5-7,1.41-9.9-.1-2.9-1.03-4.96-2.81-6.18-1.22-.84-2.69-1.31-4.43-1.41-1.73-.09-3.56,.02-5.48,.35-1.92,.33-3.77,.8-5.55,1.41-1.78,.61-3.28,1.15-4.5,1.62-4.78,1.87-9.02,4-12.72,6.39-3.7,2.39-7.28,5.5-10.75,9.34-1.5,1.59-2.95,3.51-4.36,5.76s-2.06,4.54-1.97,6.88c.09,1.69,.75,3.37,1.97,5.06,1.22,1.69,2.76,2.53,4.64,2.53,.56,0,.96,.18,1.19,.54,.23,.36,.35,.74,.35,1.15s-.12,.78-.35,1.15c-.23,.36-.63,.54-1.19,.54-1.97,0-3.68-.52-5.13-1.55-1.45-1.03-2.55-2.34-3.3-3.93-.75-1.59-1.19-3.32-1.34-5.19-.14-1.87,.07-3.65,.63-5.34,1.22-3.65,3.56-7.26,7.02-10.82,3.47-3.56,7.42-6.74,11.87-9.55,4.45-2.81,9.06-5.1,13.84-6.89,4.78-1.78,9.11-2.69,13-2.74,3.89-.05,7.03,.91,9.41,2.88,2.39,1.97,3.44,5.25,3.16,9.84-.28,3.84-1.08,7.84-2.39,12.01-1.31,4.17-2.9,8.33-4.78,12.49-1.87,4.16-3.89,8.18-6.04,12.08-2.16,3.9-4.17,7.49-6.04,10.76,1.12-.56,2.01-.75,2.67-.56,.65,.19,1.12,.49,1.41,.91,.28,.42,.35,.89,.21,1.41-.14,.52-.49,.87-1.05,1.05-.75,.28-1.66,.49-2.74,.63-1.08,.14-2.04,.3-2.88,.49-1.5,2.25-3.51,5.18-6.04,8.78-2.53,3.61-5.46,7.4-8.78,11.38-3.33,3.98-6.88,7.85-10.68,11.59-3.79,3.75-7.66,6.88-11.59,9.41-3.93,2.53-7.82,4.19-11.66,4.99-3.84,.79-7.4,.16-10.68-1.9-1.12-.75-2.06-1.66-2.81-2.74-.75-1.08-1.26-2.27-1.55-3.58-.56-2.53-.33-4.99,.7-7.38,1.03-2.39,2.46-4.61,4.28-6.67,1.83-2.06,3.86-3.96,6.11-5.69s4.31-3.25,6.18-4.57c3.28-2.25,6.7-4.19,10.26-5.83,3.56-1.64,7.21-3.11,10.96-4.42,3.75-1.31,7.54-2.48,11.38-3.51,3.84-1.03,7.73-2.01,11.66-2.95Zm-47.77,23.32c-6.46,5.53-9.79,10.73-9.98,15.59-.09,2.53,.75,4.54,2.53,6.04,1.78,1.5,4.31,1.92,7.59,1.26,4.03-.84,8.19-2.83,12.5-5.97,4.31-3.14,8.5-6.74,12.57-10.82,4.07-4.07,7.91-8.38,11.52-12.93,3.61-4.54,6.67-8.64,9.2-12.29-3.84,.56-7.8,1.36-11.87,2.39-4.07,1.03-8.1,2.34-12.08,3.93-3.98,1.59-7.85,3.44-11.59,5.55-3.75,2.11-7.21,4.52-10.4,7.24Z"/>
      <path d="M180.28,139.05c.72-.39,1.57-1.04,2.54-1.96,.97-.92,1.95-1.92,2.92-3,.97-1.08,1.9-2.15,2.79-3.21,.89-1.06,1.67-1.92,2.33-2.58,3.67-3.89,7.37-7.71,11.09-11.46,3.72-3.75,7.59-7.38,11.59-10.88,.83-.72,1.92-1.64,3.25-2.75,1.33-1.11,2.78-2.29,4.34-3.54,1.56-1.25,3.18-2.53,4.88-3.84,1.7-1.31,3.34-2.53,4.92-3.67,1.58-1.14,3.07-2.15,4.46-3.04,1.39-.89,2.56-1.53,3.5-1.92,.22-.11,.49-.14,.79-.08,.3,.06,.51,.2,.63,.42,.39,.61,.57,1.27,.54,1.96-.03,.7-.18,1.39-.46,2.08-.28,.7-.61,1.38-1,2.04-.39,.67-.72,1.25-1,1.75-3.39,5.89-6.92,11.72-10.59,17.47-3.67,5.75-7.39,11.49-11.17,17.22-1.45,2.17-2.89,4.34-4.34,6.5-1.45,2.17-2.89,4.34-4.34,6.5-.95,1.45-1.86,2.92-2.75,4.42-.89,1.5-1.72,3.06-2.5,4.67-.28,.61-.53,1.27-.75,1.96-.22,.7-.5,1.35-.83,1.96-.39,.61-.86,.83-1.42,.67-.56-.17-.78-.55-.67-1.17,.22-1,.64-2.14,1.25-3.42,.61-1.28,1.32-2.58,2.13-3.92,.8-1.33,1.61-2.63,2.42-3.88,.81-1.25,1.51-2.32,2.13-3.21,.33-.5,1.06-1.58,2.17-3.25,1.11-1.67,2.45-3.7,4-6.09,1.56-2.39,3.26-5.04,5.13-7.96,1.86-2.92,3.75-5.86,5.67-8.84,1.92-2.97,3.77-5.91,5.54-8.8,1.78-2.89,3.36-5.49,4.75-7.8,1.39-2.31,2.5-4.24,3.34-5.79,.83-1.56,1.25-2.5,1.25-2.84-7,4-13.56,8.63-19.68,13.88-6.12,5.25-11.98,10.74-17.59,16.47-2.78,2.83-5.48,5.7-8.09,8.59-2.61,2.89-5.28,5.75-8,8.59-.17,.17-.65,.63-1.46,1.38-.81,.75-1.67,1.43-2.58,2.04-.92,.61-1.74,.99-2.46,1.13-.72,.14-1.08-.26-1.08-1.21-.06-1.22,.24-2.7,.88-4.42,.64-1.72,1.44-3.53,2.42-5.42,.97-1.89,2.03-3.84,3.17-5.84,1.14-2,2.19-3.92,3.17-5.75,.97-1.84,1.79-3.53,2.46-5.09,.67-1.56,1-2.86,1-3.92-.72,.39-1.75,1.18-3.09,2.38-1.33,1.2-2.83,2.61-4.5,4.25-1.67,1.64-3.41,3.41-5.21,5.29-1.81,1.89-3.53,3.73-5.17,5.5-1.64,1.78-3.11,3.39-4.42,4.84-1.31,1.45-2.29,2.53-2.96,3.25-2.45,2.84-4.79,5.7-7.05,8.59-2.25,2.89-4.54,5.78-6.88,8.67-.17,.17-.35,.43-.54,.79-.2,.36-.4,.68-.63,.96-.22,.28-.49,.49-.79,.63-.31,.14-.63,.13-.96-.04-.39-.22-.56-.51-.5-.88,.05-.36,.22-.75,.5-1.17,.28-.42,.58-.82,.92-1.21,.33-.39,.58-.69,.75-.92,2.45-3.56,4.88-7.09,7.3-10.59,2.42-3.5,4.88-7,7.38-10.51,.44-.61,1.18-1.64,2.21-3.09,1.03-1.44,2.17-3.09,3.42-4.92,1.25-1.83,2.56-3.78,3.92-5.84,1.36-2.06,2.6-4,3.71-5.84,1.11-1.83,2-3.45,2.67-4.84,.67-1.39,.94-2.33,.83-2.83-.11-.44-.35-.78-.71-1-.36-.22-.79-.36-1.29-.42-.5-.05-.99-.07-1.46-.04-.47,.03-.88,.07-1.21,.13-1.11,.17-2.92,.56-5.42,1.17-2.5,.61-5.29,1.36-8.38,2.25-3.09,.89-6.27,1.88-9.55,2.96-3.28,1.08-6.25,2.22-8.92,3.42-2.67,1.2-4.84,2.42-6.5,3.67s-2.45,2.43-2.33,3.54c.05,.72,.55,1.36,1.5,1.92,.94,.56,2.08,1.04,3.42,1.46s2.78,.78,4.34,1.08c1.56,.31,3,.6,4.34,.88,1.33,.28,2.43,.54,3.29,.79,.86,.25,1.29,.54,1.29,.88-.11,.22-.26,.43-.46,.63-.2,.19-.43,.26-.71,.21-1.78,0-3.59-.24-5.42-.71-1.83-.47-3.59-.93-5.25-1.38-1.06-.28-2.14-.6-3.25-.96-1.11-.36-2.14-.82-3.09-1.38-.39-.22-.78-.57-1.17-1.04-.39-.47-.64-.93-.75-1.38-.11-.44-.14-.99-.08-1.63,.06-.64,.17-1.18,.33-1.63,.39-1,1.63-2.13,3.71-3.38s4.6-2.53,7.55-3.84c2.95-1.31,6.16-2.57,9.63-3.79,3.47-1.22,6.81-2.29,10.01-3.21,3.2-.92,6.1-1.61,8.71-2.08,2.61-.47,4.53-.65,5.75-.54,1,.11,1.96,.53,2.88,1.25,.92,.72,1.32,1.67,1.21,2.83-.11,1-.5,2.08-1.17,3.25-.67,1.17-1.25,2.2-1.75,3.09-2.17,4-4.54,7.87-7.13,11.59-2.58,3.73-5.21,7.42-7.88,11.09l-.08,.33c.61-.72,1.57-1.85,2.88-3.38,1.31-1.53,2.79-3.2,4.46-5,1.67-1.81,3.43-3.67,5.29-5.59,1.86-1.92,3.65-3.67,5.38-5.25,1.72-1.58,3.29-2.88,4.71-3.88,1.42-1,2.51-1.53,3.29-1.58,.28-.17,.51-.17,.71,0,.19,.17,.35,.39,.46,.67,.17,.5,.18,1.1,.04,1.79-.14,.7-.33,1.42-.58,2.17-.25,.75-.53,1.47-.83,2.17-.31,.7-.57,1.27-.79,1.71-.95,1.84-1.92,3.67-2.92,5.5-1,1.83-1.99,3.68-2.96,5.54-.97,1.86-1.88,3.74-2.71,5.63-.83,1.89-1.5,3.84-2,5.84Z"/>
      <path class="cls-2" d="M226.95,138.11c.58,0,1.02,.18,1.34,.55,.31,.37,.47,.79,.47,1.26s-.17,.89-.51,1.26c-.34,.37-.88,.55-1.61,.55-.47,0-.85-.18-1.14-.55-.29-.37-.45-.79-.47-1.26-.03-.47,.12-.89,.43-1.26,.32-.37,.81-.55,1.5-.55Z"/>
    </g>
  </g>
</svg>